<svg width="255" height="255" viewBox="0 0 255 255" fill="none" xmlns="http://www.w3.org/2000/svg">
<path fill-rule="evenodd" clip-rule="evenodd" d="M86.5339 140.181V116.169H89.6822L104.646 135.493V116.169H107.639V140.181H104.491L89.5267 120.667V140.181H86.5339ZM132.009 139.228C130.026 139.952 127.889 140.333 125.634 140.333C116.773 140.333 112.342 136.179 112.342 127.832C112.342 119.942 116.617 115.979 125.168 115.979C127.617 115.979 129.91 116.322 132.009 116.97V119.638C129.91 118.837 127.733 118.456 125.518 118.456C118.833 118.456 115.49 121.581 115.49 127.756C115.49 134.426 118.794 137.741 125.362 137.741C126.412 137.741 127.578 137.589 128.86 137.322V129.28H132.009V139.228ZM137.061 130.919V116.169H140.21V130.919C140.21 135.531 142.542 137.856 147.244 137.856C151.909 137.856 154.279 135.531 154.279 130.919V116.169H157.428V130.919C157.428 137.208 154.046 140.371 147.244 140.371C140.443 140.371 137.061 137.208 137.061 130.919ZM166.212 116.169V137.665H179.038V140.181H163.063V116.169H166.212ZM183.585 140.181H180.282L192.447 113.006L204.612 140.181H201.114L197.966 132.634H189.882L190.737 130.119H196.917L192.33 119.256L183.585 140.181ZM207.994 140.181V116.169H218.449C223.113 116.169 225.445 118.075 225.445 121.924C225.445 125.05 223.152 127.375 218.605 128.861L227 140.181H222.841L215.068 129.395V127.375C219.732 126.65 222.103 124.897 222.103 122.077C222.103 119.866 220.82 118.761 218.216 118.761H211.22V140.181H207.994Z" fill="#B52E31"/>
<path fill-rule="evenodd" clip-rule="evenodd" d="M28 109.766L53.0693 101L78.7994 109.614L74.6406 142.124L53.0693 153.825L31.8479 142.277L28 109.766Z" fill="#E23237"/>
<path fill-rule="evenodd" clip-rule="evenodd" d="M78.7994 109.614L53.0693 101V153.825L74.6406 142.124L78.7994 109.614Z" fill="#B52E31"/>
<path fill-rule="evenodd" clip-rule="evenodd" d="M53.1083 107.174L37.4836 141.248L43.3137 141.133L46.462 133.434H60.4153L63.8356 141.209L69.3936 141.324L53.1083 107.174ZM53.1471 118.113L58.4331 128.937H48.5219L53.1471 118.113Z" fill="white"/>
</svg>
