<svg width="255" height="255" viewBox="0 0 255 255" fill="none" xmlns="http://www.w3.org/2000/svg">
<path d="M152.289 189.195C152.289 188.855 152.402 188.516 152.289 188.176C152.062 187.836 151.949 187.609 151.723 187.383C151.156 186.703 150.59 186.137 149.91 185.457L143.227 178.66L148.437 173.336L151.27 170.277C151.723 169.824 152.289 168.918 152.289 168.238V167.785C152.289 166.766 151.836 166.199 150.816 165.973L151.043 166.086H150.25C149.57 166.086 147.645 167.898 147.191 168.465C145.492 170.164 144.359 171.75 142.094 173.449V159.969C142.094 158.723 141.414 158.156 140.168 158.156H139.828C138.582 158.156 137.562 158.723 137.562 159.969V189.309C137.562 190.555 138.582 191.008 139.828 191.008H140.168C141.414 191.008 142.094 190.441 142.094 189.309V184.098L145.492 187.383C146.512 188.402 147.531 189.082 148.437 189.988C148.891 190.441 149.797 191.008 150.477 191.008H150.816C151.949 191.008 152.289 190.441 152.516 189.535L152.289 189.648V189.195ZM196.582 166.086H196.129C193.637 166.086 191.371 166.766 189.332 168.238C185.934 170.73 184.008 174.016 184.008 178.32V189.422C184.008 190.668 184.461 191.008 185.707 191.008H186.047C187.293 191.008 188.539 190.555 188.539 189.422V179C188.539 176.734 188.992 174.582 190.691 172.883C192.051 171.523 193.75 170.391 195.676 170.391C197.148 170.391 198.848 170.051 198.848 168.238C198.848 166.879 197.828 166.086 196.582 166.086ZM179.137 171.75C177.891 169.711 176.191 168.125 174.039 167.105C170.074 165.18 165.883 164.953 162.031 167.219L161.465 167.559C159.879 168.465 158.52 169.598 157.5 171.07C154.555 175.375 154.215 180.246 156.82 184.777L157.047 185.23C158.18 187.156 159.652 188.742 161.578 189.762C165.656 192.027 170.074 192.254 174.152 189.988L174.492 189.762C175.625 189.082 175.852 187.949 175.285 186.816C175.059 186.363 174.605 186.023 174.152 185.797H173.926C173.133 185.684 170.98 186.59 170.187 186.93C168.602 187.156 166.789 187.27 165.203 186.703L173.812 179.227C175.059 178.094 176.418 176.848 177.777 175.828C178.91 174.922 180.043 173.676 179.137 172.09V171.75ZM171.32 175.828L161.691 184.098C161.352 183.758 161.125 183.305 160.898 182.965C160.219 181.832 159.766 180.473 159.766 179.113C159.652 175.715 160.898 172.883 163.957 171.184C166.223 169.824 168.715 169.598 171.207 170.504C172.453 170.957 173.926 171.75 174.719 172.883C173.586 173.902 172.34 174.809 171.32 175.828ZM79.7891 158.156H79.4492C78.2031 158.156 77.5234 158.609 77.5234 159.855V169.031C75.2578 166.992 72.5391 166.199 69.3672 166.199H68.4609C66.3086 166.199 64.2695 166.539 62.3437 167.672C58.2656 170.051 56 173.562 56 178.32V179.227C56 181.379 56.5664 183.191 57.6992 185.117C60.0781 189.195 63.8164 191.234 68.4609 191.234H69.3672C71.5195 191.234 73.7852 190.895 75.5977 189.875C79.6758 187.496 82.0547 183.984 82.0547 179.34V160.082C82.0547 158.609 81.0352 158.156 79.7891 158.156ZM76.2773 182.852C74.5781 185.684 72.0859 187.27 68.8008 187.27C67.4414 187.27 66.082 186.93 64.9492 186.25C62.0039 184.664 60.3047 182.059 60.3047 178.66C60.3047 177.414 60.5312 176.281 61.0977 175.148C62.6836 171.863 65.2891 170.051 68.9141 170.051C70.7266 170.051 72.3125 170.617 73.6719 171.637C76.0508 173.336 77.4102 175.602 77.4102 178.547C77.5234 180.133 77.0703 181.492 76.2773 182.852ZM97.4609 166.086H96.7812C94.6289 166.086 92.4766 166.426 90.6641 167.559C86.5859 169.937 84.3203 173.449 84.3203 178.207V179.113C84.3203 181.266 84.8867 183.078 86.0195 185.004C88.3984 189.082 92.1367 191.121 96.8945 191.121H97.8008C99.9531 191.121 102.105 190.781 104.031 189.762C108.109 187.383 110.488 183.871 110.488 179.227V178.32C110.488 176.281 109.809 174.582 108.902 172.883C106.41 168.352 102.445 166.086 97.4609 166.086ZM104.711 182.852C103.012 185.57 100.633 187.27 97.3477 187.27C95.875 187.27 94.4023 186.93 93.043 186.137C90.2109 184.437 88.625 182.059 88.625 178.773C88.625 177.527 88.8516 176.395 89.418 175.262C91.0039 171.977 93.6094 170.164 97.2344 170.164C98.9336 170.164 100.406 170.617 101.766 171.523C104.258 173.223 105.73 175.602 105.73 178.66C105.844 180.02 105.504 181.492 104.711 182.852ZM132.465 167.672L132.352 167.785C130.426 166.539 128.273 166.086 126.008 166.086H125.102C122.949 166.086 120.797 166.426 118.984 167.559C114.906 169.937 112.641 173.449 112.641 178.094V179C112.641 180.133 112.867 181.152 113.094 182.285C114.906 188.516 119.777 192.027 126.348 191.574C128.16 191.461 133.031 190.895 133.031 188.176V187.723C133.031 186.703 132.238 185.797 131.332 185.57L131.219 185.344H130.426L130.199 185.684C129.18 186.137 127.48 187.043 126.348 187.043C124.988 187.043 123.516 187.043 122.27 186.363C118.984 184.777 117.059 182.172 117.059 178.547C117.059 177.301 117.285 176.168 117.852 175.035C119.437 171.863 122.043 169.824 125.668 169.937C126.348 169.937 127.594 170.277 128.273 170.617C128.84 170.844 130.312 171.75 130.992 171.75H131.219L131.332 171.523C132.352 171.297 133.145 170.504 133.145 169.484V169.031C133.145 168.578 132.918 168.238 132.691 167.898L132.465 167.672ZM61.4375 132.328L61.5508 132.555C70.5 147.734 86.1328 154.078 103.238 154.078C136.316 154.078 163.617 139.238 176.078 108.086C184.461 108.539 193.07 106.047 197.148 98.0039L198.168 95.9648L196.129 94.832C191.258 92 184.801 91.6602 179.363 93.2461C178.684 87.3555 174.832 82.2578 170.301 78.6328L168.488 77.1602L167.016 78.9727C163.957 82.4844 163.051 88.375 163.504 92.9062C163.844 96.1914 164.863 99.5898 166.902 102.309C165.316 103.215 163.617 104.461 162.031 105.027C158.859 106.16 155.348 107.293 151.949 107.293H144.359V91.3203H129.633V63H112.641V76.5937H84.3203V91.3203H69.5937V107.18H56.9062L56.6797 108.879C56.1133 116.129 57.0195 123.152 60.0781 129.836L61.4375 132.328ZM129.633 94.7187H142.094V107.18H129.633V94.7187ZM114.906 65.2656H127.367V77.7266H114.906V65.2656ZM114.906 79.9922H127.367V92.4531H114.906V79.9922ZM114.906 94.7187H127.367V107.18H114.906V94.7187ZM100.18 79.9922H112.641V92.4531H100.18V79.9922ZM100.18 94.7187H112.641V107.18H100.18V94.7187ZM101.426 130.062C101.426 131.988 99.8398 133.574 97.9141 133.574C95.9883 133.574 94.4023 131.988 94.4023 130.062C94.4023 128.137 95.9883 126.551 97.9141 126.551C99.8398 126.664 101.426 128.137 101.426 130.062ZM86.5859 79.9922H97.9141V92.4531H86.5859V79.9922ZM86.5859 94.7187H97.9141V107.18H86.5859V94.7187ZM71.8594 94.7187H84.3203V107.18H71.8594V94.7187ZM74.5781 137.766C76.3906 137.766 78.2031 137.766 79.9023 137.652C84.3203 137.426 88.1719 136.859 91.3437 135.953C93.9492 141.957 98.707 147.508 107.203 151.586L103.238 151.699C85.3398 151.586 75.7109 145.582 67.7812 137.652C70.1602 137.766 72.4258 137.766 74.5781 137.766ZM97.9141 132.555C99.2734 132.555 100.406 131.422 100.406 130.062C100.406 129.723 100.293 129.383 100.18 129.156C99.9531 129.496 99.7266 129.723 99.2734 129.723C98.707 129.723 98.2539 129.27 98.2539 128.703C98.2539 128.363 98.4805 128.023 98.707 127.797C98.5937 127.684 98.2539 127.57 97.9141 127.57C96.5547 127.57 95.4219 128.703 95.4219 130.062C95.5352 131.422 96.5547 132.555 97.9141 132.555Z" fill="#019BC6"/>
</svg>
