<svg width="255" height="255" viewBox="0 0 255 255" fill="none" xmlns="http://www.w3.org/2000/svg">
<path d="M109.646 134.393C109.646 134.393 104.541 137.364 113.286 138.368C123.879 139.578 129.294 139.404 140.967 137.197C140.967 137.197 144.044 139.121 148.328 140.787C122.154 152.001 89.0886 140.137 109.646 134.393ZM106.445 119.755C106.445 119.755 100.718 123.998 109.469 124.903C120.787 126.071 129.722 126.167 145.194 123.188C145.194 123.188 147.329 125.358 150.691 126.542C119.05 135.798 83.8073 127.271 106.445 119.755Z" fill="#0074BD"/>
<path d="M133.408 94.9251C139.862 102.353 131.717 109.032 131.717 109.032C131.717 109.032 148.092 100.579 140.572 89.9905C133.546 80.1198 128.163 75.2179 157.318 58.3091C157.319 58.3091 111.551 69.736 133.408 94.9251Z" fill="#EA2D2E"/>
<path d="M168.026 145.22C168.026 145.22 171.807 148.337 163.863 150.746C148.757 155.322 100.985 156.702 87.7158 150.928C82.9491 148.853 91.8932 145.974 94.7056 145.369C97.6393 144.733 99.3153 144.849 99.3153 144.849C94.0107 141.114 65.0267 152.186 84.594 155.362C137.957 164.011 181.866 151.466 168.026 145.22ZM112.104 104.589C112.104 104.589 87.8059 110.362 103.501 112.461C110.13 113.347 123.335 113.143 135.645 112.111C145.702 111.267 155.796 109.462 155.796 109.462C155.796 109.462 152.252 110.982 149.686 112.733C125.006 119.224 77.3413 116.2 91.0646 109.564C102.667 103.95 112.104 104.589 112.104 104.589ZM155.694 128.951C180.779 115.92 169.18 103.395 161.085 105.082C159.105 105.496 158.216 105.853 158.216 105.853C158.216 105.853 158.955 104.697 160.359 104.201C176.375 98.5726 188.69 120.806 155.194 129.612C155.194 129.612 155.578 129.264 155.694 128.951Z" fill="#0074BD"/>
<path d="M140.574 31C140.574 31 154.465 44.8974 127.396 66.2634C105.689 83.407 122.446 93.1797 127.387 104.35C114.716 92.917 105.422 82.8519 111.656 73.4865C120.812 59.74 146.177 53.0719 140.574 31Z" fill="#EA2D2E"/>
<path d="M114.572 164.277C138.644 165.816 175.623 163.42 176.498 152.029C176.498 152.029 174.816 156.347 156.599 159.773C136.05 163.641 110.7 163.192 95.6697 160.711C95.6697 160.711 98.748 163.26 114.572 164.277Z" fill="#0074BD"/>
<path d="M175.386 184.709H174.652V184.298H176.627V184.709H175.896V186.756H175.385L175.386 184.709ZM179.327 184.811H179.318L178.59 186.756H178.255L177.532 184.811H177.524V186.756H177.039V184.298H177.749L178.419 186.038L179.091 184.298H179.797V186.756H179.327V184.811ZM110.626 207.805C108.356 209.773 105.955 210.88 103.799 210.88C100.73 210.88 99.065 209.036 99.065 206.084C99.065 202.889 100.847 200.549 107.986 200.549H110.624V207.805H110.626ZM116.893 214.876V192.99C116.893 187.395 113.701 183.704 106.014 183.704C101.528 183.704 97.5943 184.814 94.3963 186.226L95.3167 190.102C97.8353 189.177 101.092 188.319 104.289 188.319C108.72 188.319 110.624 190.102 110.624 193.793V196.559H108.41C97.6502 196.559 92.795 200.733 92.795 207.011C92.795 212.419 95.9945 215.493 102.019 215.493C105.89 215.493 108.783 213.895 111.484 211.555L111.975 214.877H116.893V214.876ZM137.806 214.876H129.991L120.583 184.266H127.41L133.249 203.076L134.548 208.727C137.495 200.552 139.585 192.254 140.63 184.267H147.27C145.493 194.343 142.29 205.408 137.806 214.876ZM167.793 207.805C165.515 209.773 163.113 210.88 160.965 210.88C157.893 210.88 156.229 209.036 156.229 206.084C156.229 202.889 158.016 200.549 165.147 200.549H167.792V207.805H167.793ZM174.063 214.876V192.99C174.063 187.395 170.862 183.704 163.182 183.704C158.69 183.704 154.759 184.814 151.561 186.226L152.483 190.102C155.001 189.177 158.263 188.319 161.459 188.319C165.884 188.319 167.793 190.102 167.793 193.793V196.559H165.579C154.816 196.559 149.962 200.733 149.962 207.011C149.962 212.419 153.159 215.493 159.182 215.493C163.054 215.493 165.943 213.895 168.651 211.555L169.146 214.877H174.063V214.876ZM85.9232 220.078C84.14 222.688 81.2514 224.754 78.0923 225.919L75 222.273C77.4051 221.039 79.4651 219.047 80.4243 217.191C81.2514 215.538 81.595 213.413 81.595 208.327V173.375H88.2553V207.847C88.2553 214.649 87.7142 217.399 85.9232 220.078Z" fill="#EA2D2E"/>
</svg>
