<svg width="255" height="255" viewBox="0 0 255 255" fill="none" xmlns="http://www.w3.org/2000/svg">
<path d="M182.22 110.184C182.22 141.498 157.485 166.907 126.957 166.907C96.4282 166.907 71.6938 141.498 71.6938 110.184C71.6938 78.8693 96.4286 53.46 126.957 53.46C157.485 53.46 182.22 78.8693 182.22 110.184" fill="#D33833"/>
<path d="M73.9664 124.23C73.9664 124.23 69.9554 65.092 124.283 63.3914L120.494 57.0391L91.0355 66.9702L82.6125 76.6776L75.259 90.8137L71.0693 107.276L72.3175 118.281" fill="#EF3D3A"/>
<path d="M89.1191 71.4883C79.4484 81.464 73.4315 95.1979 73.4315 110.407C73.4315 125.617 79.4484 139.35 89.1191 149.326C98.8347 159.302 112.161 165.431 126.957 165.431C141.753 165.431 155.078 159.302 164.794 149.327C174.465 139.35 180.482 125.617 180.482 110.407C180.482 95.1975 174.465 81.464 164.794 71.4883C155.079 61.5572 141.753 55.3843 126.957 55.3843C112.205 55.3843 98.8351 61.5126 89.1191 71.4883ZM86.668 151.697C76.3735 141.14 70 126.512 70 110.407C70 94.303 76.3735 79.6746 86.668 69.0727C96.963 58.5154 111.225 51.9395 126.957 51.9395C142.689 51.9395 156.95 58.5154 167.245 69.0727C177.54 79.63 183.913 94.2579 183.913 110.407C183.913 126.511 177.54 141.14 167.245 151.697C156.95 162.299 142.689 168.83 126.957 168.83C111.225 168.83 96.963 162.299 86.668 151.697Z" fill="#231F20"/>
<path d="M150.221 110.497L141.797 111.749L130.433 113.047L123.079 113.226L115.904 113.002L110.422 111.302L105.564 106.023L101.776 95.242L100.929 92.9157L95.8935 91.216L92.9516 86.3402L90.8572 79.3612L93.1748 73.2329L98.6567 71.3092L103.069 73.4119L105.163 78.0646L107.704 77.6615L108.55 76.5881L107.704 71.7118L107.481 65.5831L108.728 57.1285L108.684 52.2973L112.517 46.124L119.246 41.2477L131.012 36.1929L144.07 38.1162L155.435 46.3476L160.694 54.8022L164.081 60.9309L164.928 76.1404L162.387 89.2476L157.752 100.879L153.385 107.097" fill="#F0D6B7"/>
<path d="M143.09 147.045L113.007 148.297V153.352L115.548 171.112L114.299 172.588L93.2639 165.386L91.7934 162.836L89.6985 138.948L84.7516 124.633L83.6821 121.233L100.528 109.602L105.788 107.5L110.422 113.225L114.433 116.804L119.069 118.28L121.163 118.907L123.703 129.912L125.62 132.238L130.477 130.538L127.09 137.113L145.363 145.792L143.09 147.044" fill="#335061"/>
<path d="M93.1748 73.3224L98.6567 71.3991L103.069 73.5014L105.163 78.154L107.703 77.7514L108.328 75.2015L107.08 70.3252L108.327 58.6944L107.258 52.3421L111.046 47.9135L119.246 41.3822L116.929 38.2061L105.341 43.9317L100.484 47.7345L97.7651 53.6392L93.5759 59.3653L92.3281 66.1202L93.1748 73.3224Z" fill="#6D6B6D"/>
<path d="M101.821 53.4599C101.821 53.4599 104.985 45.6315 117.597 41.8292C130.21 38.0268 118.222 39.1002 118.222 39.1002L104.539 44.3791L99.2806 49.6575L96.9629 53.8625L101.821 53.4599ZM95.4924 71.846C95.4924 71.846 91.0799 57.0387 107.926 54.9364L107.302 52.3865L95.7152 55.1154L92.3281 66.1204L93.1748 73.3221L95.4924 71.846Z" fill="#DCD9D8"/>
<path d="M102.222 91.4847L104.985 88.8004C104.985 88.8004 106.233 88.9347 106.456 90.4108C106.679 91.8872 107.303 105.218 116.35 112.376C117.196 113.046 109.62 111.302 109.62 111.302L102.89 100.744L102.222 91.4847ZM140.951 87.4582C140.951 87.4582 141.441 81.0612 143.179 81.5536C144.917 82.0454 144.917 83.7897 144.917 83.7897C144.917 83.7897 140.728 86.474 140.951 87.4582ZM158.421 64.0177C158.421 64.0177 154.945 64.7332 154.633 67.8201C154.321 70.9065 158.421 68.4463 159.045 68.2227L158.421 64.0177ZM132.973 64.2413C132.973 64.2413 128.338 64.8675 128.338 67.8201C128.338 70.7722 133.597 70.5486 135.068 69.2961L132.973 64.2413ZM104.361 77.9748C104.361 77.9748 96.3841 73.0985 95.5375 77.7512C94.6908 82.4034 92.8188 85.7581 96.7852 90.6344L94.0665 89.7845L91.5265 83.2532L90.6794 76.9009L95.5375 71.8461L101.019 72.2487L104.183 74.7986L104.362 77.9748H104.361ZM108.15 64.6439C108.15 64.6439 111.715 46.0342 129.809 42.4554C144.694 39.5029 152.538 43.0821 155.48 46.4814C155.48 46.4814 142.199 30.6457 129.586 35.4769C116.974 40.3531 107.704 49.2103 107.926 54.8918C108.283 64.6435 108.149 64.6435 108.149 64.6435L108.15 64.6439ZM156.95 48.5841C156.95 48.5841 150.845 48.3605 150.622 53.8626C150.622 53.8626 150.622 54.7128 151.023 55.5627C151.023 55.5627 155.881 50.0602 158.822 53.0127" fill="#F7E4CD"/>
<path d="M130.255 56.1445C130.255 56.1445 129.185 47.7345 122.055 52.6104C117.419 55.7865 117.865 60.2151 118.667 61.0654C119.514 61.9153 119.291 63.6149 119.915 62.4522C120.539 61.289 120.361 57.4867 122.678 56.4128C124.951 55.3393 128.784 54.1766 130.255 56.1445Z" fill="#F7E4CD"/>
<path d="M110.467 113.226L90.6785 122.083C90.6785 122.083 98.8791 154.828 94.6894 164.983L91.7484 163.91L91.5256 151.429L86.0437 127.809L83.7261 121.277L104.361 107.32L110.466 113.225L110.467 113.226ZM112.472 131.343L115.28 134.788V147.447H111.938C111.938 147.447 111.537 138.59 111.537 137.517C111.537 136.443 111.938 132.64 111.938 132.64L112.472 131.343ZM112.562 149.371L103.069 149.774L105.788 151.697L112.517 152.771" fill="#49728B"/>
<path d="M144.962 147.269L152.761 147.045L154.677 166.459L146.7 167.533L144.962 147.268" fill="#335061"/>
<path d="M147.057 147.269L158.822 146.642C158.822 146.642 163.68 134.385 163.68 133.759C163.68 133.132 167.869 115.999 167.869 115.999L158.377 106.068L156.46 104.369L151.424 109.423V129.062L147.057 147.269Z" fill="#335061"/>
<path d="M152.315 145.792L144.962 147.269L146.032 153.174C148.75 154.426 153.385 151.071 153.385 151.071L152.315 145.792ZM152.538 108.797L167.29 119.802L167.691 114.746L156.549 104.413L152.538 108.797" fill="#49728B"/>
<path d="M119.871 188.872L115.503 171.112L113.319 158.005L112.963 148.298L132.706 147.224H144.962L143.848 169.412L145.764 186.545L145.541 189.722L129.541 190.974L119.871 188.872Z" fill="white"/>
<path d="M142.243 147.045C142.243 147.045 141.174 169.01 144.338 184.667C144.338 184.667 138.009 188.693 128.784 189.721L146.477 189.095L148.572 187.843L146.032 153.218L145.363 145.792" fill="#DCD9D8"/>
<path d="M154.989 164.804L163.19 162.478L178.744 161.628L181.061 154.426L176.872 141.945L172.014 141.319L165.284 143.422L158.867 146.598L155.435 145.971L152.761 147.045" fill="white"/>
<path d="M154.855 160.555C154.855 160.555 160.337 158.005 161.184 158.229L158.866 146.598L161.585 145.524C161.585 145.524 163.502 156.529 163.502 157.781C163.502 157.781 175.267 158.408 176.337 158.408C176.337 158.408 178.877 153.531 178.253 148.476L180.571 155.231L180.794 159.034L177.406 164.089L173.618 164.939L167.29 164.715L165.195 161.986L157.841 163.06L155.524 163.91" fill="#DCD9D8"/>
<path d="M146.566 145.568L141.931 133.759L137.073 126.78C137.073 126.78 138.143 123.828 139.614 123.828H144.472L149.107 125.527L148.705 133.356L146.566 145.568Z" fill="white"/>
<path d="M147.502 141.543C147.502 141.543 141.619 130.136 141.619 128.435C141.619 128.435 142.689 125.885 144.159 126.512C145.63 127.138 148.795 128.838 148.795 128.838V124.812L141.619 123.336L136.761 123.962L144.962 143.466L146.655 143.69" fill="#DCD9D8"/>
<path d="M121.742 113.673L115.904 113.046L110.422 111.347V113.27L113.096 116.223L121.52 120.025" fill="white"/>
<path d="M112.339 114.299C112.339 114.299 118.845 117.028 120.985 116.402L121.207 118.952L115.325 117.699L111.76 115.149L112.339 114.299Z" fill="#DCD9D8"/>
<path d="M154.989 124.544C151.424 124.454 148.17 124.007 145.363 123.202C145.541 122.038 145.184 120.92 145.497 120.07C146.299 119.488 147.591 119.488 148.794 119.355C147.769 118.862 146.299 118.639 145.14 118.952C145.095 118.147 144.739 117.654 144.516 117.028C146.522 116.312 151.246 111.615 153.92 113.136C155.212 113.897 155.747 118.102 155.836 120.204C155.925 121.904 155.658 123.604 154.989 124.544Z" fill="#D33833"/>
<path d="M154.989 124.544C151.424 124.454 148.17 124.007 145.363 123.202C145.541 122.038 145.184 120.92 145.497 120.07C146.299 119.488 147.591 119.488 148.794 119.355C147.769 118.862 146.299 118.639 145.14 118.952C145.095 118.147 144.739 117.654 144.516 117.028C146.522 116.312 151.246 111.615 153.92 113.136C155.212 113.897 155.747 118.102 155.836 120.204C155.925 121.904 155.658 123.604 154.989 124.544Z" fill="black" stroke="#D33833" stroke-width="11.9904"/>
<path d="M137.92 118.683C137.92 118.952 137.92 119.22 137.875 119.488C136.762 120.204 134.978 120.204 133.731 120.83C135.514 120.92 136.94 121.367 138.188 121.948C138.143 122.62 138.143 123.336 138.099 124.007C136.048 125.393 134.177 127.496 131.77 128.838C130.611 129.464 126.645 131.075 125.442 130.761C124.773 130.583 124.684 129.733 124.417 128.927C123.837 127.228 122.5 124.454 122.366 121.859C122.232 118.594 121.876 113.091 125.397 113.762C128.249 114.299 131.547 115.597 133.731 116.804C135.112 117.61 135.87 118.504 137.92 118.683Z" fill="#D33833"/>
<path d="M137.92 118.683C137.92 118.952 137.92 119.22 137.875 119.488C136.762 120.204 134.978 120.204 133.731 120.83C135.514 120.92 136.94 121.367 138.188 121.948C138.143 122.62 138.143 123.336 138.099 124.007C136.048 125.393 134.177 127.496 131.77 128.838C130.611 129.464 126.645 131.075 125.442 130.761C124.773 130.583 124.684 129.733 124.417 128.927C123.837 127.228 122.5 124.454 122.366 121.859C122.232 118.594 121.876 113.091 125.397 113.762C128.249 114.299 131.547 115.597 133.731 116.804C135.112 117.61 135.87 118.504 137.92 118.683Z" fill="black" stroke="#D33833" stroke-width="11.9904"/>
<path d="M139.926 122.575C139.614 120.785 139.257 120.294 139.391 118.728C144.159 115.551 145.006 124.185 139.925 122.575" fill="#D33833"/>
<path d="M139.926 122.575C139.614 120.785 139.257 120.294 139.391 118.728C144.159 115.551 145.006 124.185 139.925 122.575H139.926Z" fill="black" stroke="#D33833" stroke-width="11.9904"/>
<path d="M146.789 124.007C146.789 124.007 145.318 121.904 146.388 121.278C147.458 120.652 148.483 121.278 149.107 120.205C149.731 119.131 149.107 118.505 149.329 117.252C149.552 116 150.577 115.776 151.647 115.552C152.716 115.328 155.658 114.926 156.059 115.955L154.811 112.152L152.271 111.302L144.293 115.955L143.892 118.281V122.933L146.789 124.007ZM124.684 130.985C124.417 127.675 124.149 124.41 123.882 121.099C123.436 116.179 125.041 117.028 129.319 117.028C129.987 117.028 133.33 117.789 133.553 118.281C134.712 120.652 131.636 120.115 134.89 121.904C137.608 123.381 142.466 121.01 141.352 117.655C140.728 116.894 138.143 117.431 137.207 116.939L132.26 114.389C130.166 113.315 125.352 111.705 123.124 113.226C117.464 117.073 123.481 126.736 125.486 130.762" fill="#EF3D3A"/>
<path d="M130.255 56.1446C124.505 54.8024 121.653 58.5602 119.915 62.4518C118.355 62.0943 118.979 59.947 119.381 58.8735C120.405 56.0553 124.55 52.2525 127.937 52.7894C129.363 52.9684 131.324 54.3106 130.255 56.1446ZM158.198 62.6754H158.465C159.758 65.3597 160.872 68.223 162.521 70.6386C161.407 73.2332 154.232 75.4698 154.321 70.9069C155.881 70.236 158.555 70.7725 159.936 69.8781C159.134 67.6861 158.02 65.807 158.198 62.6759V62.6754ZM133.152 62.7656C134.399 65.0469 134.8 67.4178 136.538 69.1179C137.341 69.8781 138.856 70.8176 138.099 72.9645C137.92 73.4568 136.628 74.5754 135.87 74.799C133.152 75.6042 126.778 74.9779 128.918 71.5331C131.19 71.6228 134.221 73.0096 135.915 71.3541C134.622 69.2965 132.305 65.1808 133.152 62.7656ZM157.173 85.7584C153.073 88.3981 148.482 91.306 141.708 90.6347C140.282 89.3823 139.703 86.5636 141.129 84.7301C141.842 85.9825 141.396 88.3088 143.447 88.6663C147.279 89.3376 151.736 86.2954 154.499 85.267C156.192 82.3591 154.366 81.3303 152.806 79.4512C149.641 75.6488 145.452 70.9069 145.586 65.2258C146.878 64.2863 146.967 66.6573 147.145 67.0599C148.794 70.9069 152.939 75.8724 155.925 79.1829C156.683 79.9881 157.886 80.7933 158.02 81.3303C158.421 82.851 156.995 84.7296 157.173 85.7589V85.7584ZM102.89 82.9853C101.598 82.2247 101.286 79.0039 99.7707 78.9142C97.5869 78.7803 97.988 83.1197 97.988 85.6692C96.5175 84.3275 96.2498 80.122 97.3197 77.9751C96.0719 77.3485 95.5365 78.646 94.8237 79.0932C95.7598 72.607 104.317 76.096 102.891 82.9853H102.89ZM159.758 88.4873C157.842 92.1558 155.123 96.1818 149.508 96.3162C149.374 95.153 149.285 93.319 149.508 92.6031C153.831 92.1558 156.504 89.9638 159.758 88.4873ZM132.84 90.8583C136.405 92.7374 143.001 92.961 147.903 92.8267C148.17 93.9006 148.17 95.2423 148.17 96.5398C141.887 96.808 134.488 95.2423 132.84 90.8583ZM132.171 94.3478C134.667 100.61 143.179 99.8949 150.354 99.716C150.042 100.521 149.374 101.505 148.483 101.818C146.165 102.758 139.836 103.474 136.628 101.774C134.622 100.7 133.285 98.2394 132.171 96.808C131.681 96.1372 129.007 94.3924 132.171 94.3478Z" fill="#231F20"/>
<path d="M156.861 128.838C153.964 133.848 151.157 138.992 147.725 143.376C149.151 139.127 149.775 131.969 149.998 126.512C153.028 125.08 155.613 126.825 156.861 128.838" fill="#81B0C4"/>
<path d="M172.504 146.821C169.251 147.492 166.978 150.668 163.769 150.445C165.552 147.984 168.582 146.911 172.504 146.821ZM173.93 151.921C171.256 152.189 168.137 152.637 165.463 152.413C166.755 150.445 171.658 151.16 173.93 151.921ZM174.866 156.35C171.88 156.394 168.181 156.35 165.329 156.126C167.022 154.292 172.95 155.455 174.866 156.35Z" fill="#231F20"/>
<path d="M151.246 168.428C151.691 172.186 153.162 175.989 152.984 180.104C151.335 180.64 150.399 181.133 148.17 181.133C148.037 177.643 147.547 172.276 147.68 168.92C148.75 169.01 150.354 168.16 151.246 168.428Z" fill="#DCD9D8"/>
<path d="M146.433 112.957C144.917 113.941 143.669 115.149 142.198 116.223C138.99 116.402 137.252 115.999 134.934 114.165C134.979 114.031 135.202 114.076 135.202 113.897C138.633 115.418 143.001 113.27 146.433 112.957" fill="#F0D6B7"/>
<path d="M128.516 136.353C129.452 132.282 133.152 130.135 136.494 127.898C139.925 132.282 142.02 137.919 144.338 143.376C138.856 141.721 133.285 139.082 128.516 136.353Z" fill="#81B0C4"/>
<path d="M147.68 168.965C147.547 172.32 147.992 177.643 148.17 181.177C150.399 181.177 151.335 180.685 152.984 180.148C153.162 176.032 151.691 172.23 151.246 168.472C150.354 168.159 148.75 169.009 147.68 168.965ZM113.275 149.997C114.745 163.462 116.84 174.735 120.717 186.679C129.319 189.319 139.658 189.542 147.279 187.171C145.898 180.461 146.477 172.275 145.675 165.073C145.051 159.66 145.363 154.247 144.516 148.744C135.291 146.821 122.277 148.297 113.275 149.997ZM146.7 148.834C146.611 154.605 146.967 160.331 147.413 166.101C149.641 165.788 151.112 165.565 153.162 165.073C152.494 159.525 152.583 153.218 151.201 148.297C149.641 148.342 148.259 148.297 146.7 148.834V148.834ZM157.886 147.895C156.817 147.671 155.613 147.895 154.633 147.895C155.123 152.592 156.237 157.781 156.638 162.747C158.198 162.791 159.045 162.031 160.338 161.807C160.427 157.468 159.981 151.473 157.886 147.895ZM174.866 163.462C178.164 162.657 180.214 158.631 179.278 154.471C178.654 151.697 177.585 146.419 176.381 144.629C175.535 143.332 173.173 141.587 171.256 142.795C168.181 144.763 162.789 145.345 160.56 147.716C161.674 151.473 162.031 156.573 162.476 161.315C166.31 161.539 170.989 160.242 174.198 161.628C171.969 162.344 169.117 162.344 167.201 163.417C168.805 164.178 172.46 164.044 174.866 163.463V163.462ZM144.293 143.376C141.976 137.919 139.881 132.283 136.449 127.899C133.107 130.135 129.453 132.283 128.472 136.353C133.285 139.082 138.856 141.721 144.293 143.376ZM149.998 126.512C149.775 131.969 149.151 139.127 147.725 143.376C151.156 138.948 153.965 133.848 156.861 128.838C155.613 126.825 153.029 125.08 149.998 126.511L149.998 126.512ZM143.536 124.231C142.243 124.096 141.129 125.751 139.435 125.035C139.034 125.483 138.678 125.93 138.277 126.377C142.02 130.94 143.758 137.382 146.656 142.705C148.215 137.561 148.037 131.969 148.394 126.377C146.254 126.467 145.051 124.364 143.536 124.23V124.231ZM139.391 118.728C139.257 120.293 139.614 120.786 139.925 122.575C145.006 124.185 144.16 115.551 139.391 118.728ZM133.731 116.849C131.547 115.641 128.249 114.344 125.397 113.807C121.876 113.136 122.232 118.638 122.366 121.904C122.5 124.498 123.837 127.227 124.417 128.972C124.684 129.777 124.773 130.627 125.442 130.806C126.645 131.075 130.656 129.509 131.77 128.882C134.177 127.585 136.048 125.483 138.099 124.051C138.143 123.38 138.143 122.664 138.188 121.993C136.94 121.367 135.558 120.965 133.731 120.875C134.934 120.249 136.762 120.249 137.875 119.533C137.875 119.265 137.875 118.996 137.92 118.728C135.87 118.504 135.112 117.61 133.731 116.849ZM112.784 113.047C110.957 114.925 117.909 117.431 120.094 117.565C120.094 116.402 120.762 115.284 120.628 114.433C117.999 113.986 114.567 114.299 112.784 113.047ZM135.247 113.896C135.247 114.075 135.023 114.031 134.979 114.165C137.341 115.999 139.079 116.401 142.243 116.223C143.67 115.194 144.962 113.941 146.477 112.957C143.001 113.27 138.633 115.418 135.246 113.896H135.247ZM155.836 120.159C155.747 118.101 155.212 113.852 153.92 113.091C151.246 111.525 146.522 116.267 144.516 116.983C144.739 117.61 145.096 118.101 145.14 118.907C146.344 118.594 147.769 118.817 148.794 119.309C147.591 119.444 146.299 119.444 145.497 120.025C145.229 120.875 145.586 121.993 145.363 123.157C148.17 123.962 151.424 124.364 154.99 124.498C155.658 123.604 155.925 121.904 155.836 120.159ZM109.709 114.836C109.13 114.433 105.253 109.378 104.718 109.602C97.7208 112.376 91.1695 117.162 85.331 121.725C90.9018 133.759 93.175 148.476 93.576 162.657C99.9495 165.654 105.564 169.993 114.255 170.441C113.23 163.328 112.339 156.931 111.76 150.221C109.576 149.281 106.456 150.266 104.406 149.952C104.406 147.492 107.525 148.879 107.793 147.224C107.971 145.971 106.054 145.882 106.679 143.913C108.283 144.495 109.13 145.792 110.823 146.284C112.383 142.884 110.823 136.845 111.046 133.982C111.091 133.446 111.314 131.03 112.517 131.432C113.587 131.79 112.472 137.919 112.562 140.603C112.651 143.108 112.25 145.479 113.275 147.045C121.653 145.882 130.166 145.166 139.257 144.897C137.252 144.048 134.89 143.242 132.305 141.766C130.879 140.961 126.467 139.306 126.065 137.964C125.397 135.816 127.759 134.698 128.16 132.864C123.926 135.19 123.124 130.627 122.099 127.451C121.207 124.543 120.673 122.351 120.45 120.696C116.751 118.817 112.829 117.073 109.709 114.836ZM152.137 110.183C157.975 107.366 159.045 120.786 156.727 125.125C157.084 126.422 158.287 126.914 158.778 128.077C155.524 133.938 151.915 139.395 148.572 145.166C151.023 143.6 154.588 144.897 157.485 143.734C158.555 143.332 159.313 140.871 160.115 138.903C162.343 133.535 164.66 126.735 165.686 121.636C165.908 120.473 166.577 117.922 166.398 116.894C166.131 115.015 163.635 113.628 162.343 112.51C159.981 110.362 158.51 108.529 156.014 106.515C155.078 107.992 152.939 108.975 152.137 110.184V110.183ZM96.3837 58.2466C93.6205 61.3335 94.1999 67.0596 94.5121 71.1749C99.548 67.9991 106.189 71.4436 106.144 76.8117C108.55 76.7666 107.035 73.8145 106.59 71.8908C105.163 65.6728 108.996 58.9625 106.768 53.2815C102.445 53.639 98.9241 55.3838 96.3837 58.247V58.2466ZM116.26 40.3979C109.977 42.1873 101.91 46.7948 99.3252 52.4759C101.331 52.163 102.712 51.1788 104.673 51.0444C105.431 50.9998 106.411 51.3578 107.258 51.1342C108.951 50.6869 110.422 46.8395 111.715 45.408C112.963 44.0213 114.478 43.3951 115.503 42.1426C116.172 41.8293 117.152 41.8293 117.197 40.8451C116.929 40.5318 116.617 40.3086 116.26 40.3979ZM149.017 42.0975C142.466 38.3849 131.414 35.6113 124.461 39.1004C118.845 41.9186 111.269 46.5708 108.684 52.4317C111.091 58.1122 107.971 63.3014 107.748 69.0721C107.659 72.159 109.175 74.7987 109.308 78.1539C108.461 79.5406 105.965 79.6745 104.228 79.5853C103.648 76.6323 102.623 73.3222 99.5924 72.9642C95.3143 72.4724 92.15 76.0511 91.9717 79.7643C91.7489 84.1482 95.3143 91.395 100.395 90.9031C102.356 90.7242 102.846 88.7558 104.985 88.7558C106.144 91.0821 103.203 91.7976 102.891 93.4526C102.801 93.9003 103.113 95.5554 103.336 96.3605C104.272 100.163 106.322 105.128 108.328 108.036C110.912 111.749 115.949 112.286 121.386 112.644C122.366 110.541 125.932 110.72 128.249 111.257C125.442 110.139 122.857 107.455 120.717 105.084C118.266 102.355 115.77 99.4474 115.637 95.8687C120.316 102.355 124.149 108.036 132.617 110.9C139.034 113.047 146.522 109.915 151.469 106.426C153.519 104.994 154.722 102.668 156.193 100.61C161.63 92.7372 164.17 81.5532 163.635 70.683C163.412 66.2098 163.412 61.7361 161.897 58.7389C160.338 55.6074 155.034 52.7446 151.914 55.6074C151.335 52.5209 154.499 50.6418 158.198 51.7604C155.569 48.316 152.806 44.2449 149.017 42.0975ZM161.229 143.242C166.354 140.692 175.891 136.398 179.056 143.242C180.259 145.792 181.64 150.042 182.22 152.681C183.066 156.35 181.284 164.133 177.496 165.341C174.153 166.415 170.276 166.37 166.265 165.565C165.775 165.162 165.285 164.491 164.883 163.775C162.031 163.686 159.313 163.91 157.084 165.118C157.307 167.264 155.881 167.578 154.499 168.026C153.519 172.006 156.505 177.196 155.792 180.774C155.301 183.369 152.137 183.772 149.82 184.219C149.73 185.651 149.909 186.858 150.087 188.066C149.553 190.035 147.19 191.153 144.917 191.421C137.475 192.316 126.199 192.718 119.069 190.124C117.063 185.203 115.503 179.254 113.854 173.662C106.901 174.422 101.242 170.664 95.9381 168.159C94.111 167.31 91.5706 166.817 90.8573 165.341C90.189 163.91 90.4562 161.181 90.2779 158.631C89.8768 152.055 89.4757 145.703 87.7824 138.992C87.0247 135.951 85.6431 133.311 84.7071 130.404C83.816 127.72 82.3005 124.364 81.8994 121.68C81.32 117.699 85.0637 117.475 87.4258 115.73C91.125 113.047 94.0216 111.57 98.0325 109.154C99.2363 108.439 102.801 106.65 103.202 105.799C104.005 104.145 101.821 101.818 101.242 100.521C100.306 98.4633 99.8152 96.7185 99.6818 94.7051C96.3392 94.1686 93.7544 92.1556 92.2394 89.919C89.6985 86.1612 87.9158 79.2273 90.1445 73.9935C90.3228 73.5909 91.1695 72.7406 91.3033 72.1144C91.5706 70.862 90.8129 69.2065 90.7684 67.8648C90.5456 61.0202 91.9272 55.1151 96.5175 53.0574C98.3892 45.587 105.074 43.1268 111.358 39.4137C113.721 38.0269 116.305 37.1324 118.979 36.1478C128.561 32.6141 143.313 33.285 151.29 39.324C154.677 41.8739 160.07 47.2867 161.986 51.2234C167.111 61.5571 166.711 78.8693 163.145 91.4847C162.655 93.1844 161.986 95.6446 161.006 97.7027C160.338 99.1341 158.243 101.952 158.466 103.205C158.733 104.502 163.279 107.947 164.26 108.886C165.998 110.586 169.34 112.823 169.607 114.97C169.919 117.252 168.627 120.383 167.959 122.575C165.819 129.912 163.68 136.666 161.229 143.242Z" fill="#231F20"/>
<path d="M127.135 92.424C127.403 92.066 128.918 91.4849 131.057 92.5137C131.057 92.5137 128.517 92.9163 128.739 97.1664L127.67 96.9423C127.715 96.9874 126.6 93.1399 127.135 92.424Z" fill="#F7E4CD"/>
<path d="M145.586 128.749C145.586 129.375 145.051 129.912 144.427 129.912C143.803 129.912 143.268 129.375 143.268 128.749C143.268 128.122 143.803 127.585 144.427 127.585C145.096 127.585 145.586 128.122 145.586 128.749ZM146.744 134.161C146.744 134.788 146.21 135.325 145.586 135.325C144.962 135.325 144.427 134.788 144.427 134.161C144.427 133.535 144.962 132.998 145.586 132.998C146.254 132.998 146.744 133.491 146.744 134.161Z" fill="#1D1919"/>
<path d="M86.0441 202.605C85.6875 202.65 85.3758 202.694 85.1081 202.739C84.8409 202.784 84.5736 202.829 84.217 202.918C83.8159 203.007 83.5927 203.186 83.5037 203.455C83.4148 203.723 83.3254 203.991 83.3254 204.35V215.264C83.3253 216.224 83.1122 217.172 82.7015 218.038C82.3004 218.888 81.7655 219.559 81.0527 220.141C80.3394 220.677 79.5373 221.125 78.6461 221.393C77.7546 221.662 76.8185 221.841 75.838 221.841C74.0998 221.841 72.7187 221.438 71.6488 220.588C70.5794 219.738 70.0444 218.62 70.0444 217.144C70.0444 216.294 70.2672 215.578 70.7577 214.996C71.2477 214.415 71.9165 214.146 72.7632 214.146C73.5653 214.146 74.1892 214.37 74.6797 214.862C75.1697 215.354 75.3925 215.936 75.3925 216.607C75.3925 217.189 75.1697 217.77 74.7686 218.262C74.3675 218.754 73.8775 219.246 73.3426 219.649V219.828C73.4315 220.006 73.6098 220.185 73.877 220.32C74.1447 220.454 74.4565 220.499 74.7242 220.499C75.838 220.499 76.7296 220.096 77.3535 219.29C77.9778 218.486 78.2895 217.278 78.2895 215.668V204.484C78.2895 204.171 78.2446 203.857 78.1557 203.634C78.0667 203.41 77.799 203.231 77.398 203.052C77.1307 202.918 76.7741 202.829 76.373 202.739C75.9719 202.65 75.6602 202.605 75.3925 202.56V201.486H85.9103V202.605H86.0441ZM102.534 217.994C102.222 218.53 101.821 219.022 101.375 219.515C100.929 220.006 100.395 220.364 99.8151 220.722C99.1913 221.08 98.5674 221.349 97.9435 221.527C97.3192 221.706 96.5619 221.796 95.7597 221.796C94.3781 221.796 93.2193 221.617 92.1944 221.214C91.2139 220.812 90.3672 220.32 89.7433 219.649C89.0746 218.978 88.629 218.217 88.2724 217.323C87.9475 216.388 87.7818 215.405 87.7824 214.415C87.7824 213.476 87.9607 212.536 88.3168 211.686C88.6735 210.836 89.1639 210.031 89.7878 209.36C90.4117 208.689 91.2139 208.152 92.1944 207.749C93.2128 207.332 94.303 207.119 95.4031 207.123C96.6958 207.123 97.7657 207.302 98.6119 207.615C99.459 207.928 100.127 208.376 100.662 208.913C101.197 209.449 101.553 210.076 101.821 210.791C102.044 211.507 102.177 212.268 102.177 213.072V213.967H92.7738C92.7738 215.891 93.1304 217.323 93.8877 218.307C94.6009 219.291 95.8042 219.783 97.3641 219.783C98.2557 219.783 99.0129 219.559 99.7262 219.067C100.438 218.583 101.045 217.959 101.509 217.233L102.534 217.993V217.994ZM97.2307 212.67C97.2307 212.133 97.1862 211.551 97.1418 210.97C97.0969 210.388 97.0079 209.896 96.8296 209.538C96.6513 209.091 96.4734 208.778 96.1613 208.554C95.894 208.331 95.537 208.241 95.1363 208.241C94.4231 208.241 93.8437 208.599 93.443 209.315C92.997 210.03 92.7738 211.193 92.7298 212.759L97.2307 212.67ZM122.188 221.304H113.809V220.275C113.988 220.275 114.21 220.23 114.434 220.185C114.701 220.141 114.879 220.096 115.013 220.051C115.191 219.962 115.325 219.783 115.414 219.604C115.503 219.425 115.548 219.112 115.548 218.754V212.223C115.548 211.284 115.369 210.568 115.013 210.076C114.656 209.584 114.166 209.36 113.453 209.36C113.096 209.36 112.74 209.405 112.428 209.539C112.116 209.629 111.803 209.807 111.492 210.031C111.225 210.21 111.002 210.389 110.823 210.613C110.645 210.792 110.511 210.971 110.422 211.149V218.62C110.422 218.933 110.467 219.202 110.556 219.425C110.645 219.649 110.823 219.828 111.002 219.918C111.136 220.007 111.313 220.097 111.536 220.141L112.205 220.276V221.304H103.737V220.276C103.96 220.276 104.183 220.23 104.45 220.186C104.673 220.141 104.896 220.097 105.074 220.052C105.386 219.962 105.564 219.783 105.699 219.56C105.788 219.336 105.876 219.068 105.876 218.71V210.568C105.876 210.3 105.788 209.986 105.654 209.718C105.52 209.45 105.297 209.226 105.074 209.047C104.896 208.958 104.718 208.823 104.45 208.779C104.177 208.687 103.891 208.642 103.604 208.644V207.616L110.244 207.258L110.467 207.481V209.495H110.512C110.837 209.226 111.149 208.942 111.447 208.644C111.776 208.359 112.118 208.09 112.472 207.839C112.829 207.616 113.274 207.437 113.809 207.258C114.344 207.079 114.968 207.034 115.592 207.034C117.107 207.034 118.221 207.481 118.979 208.331C119.737 209.181 120.093 210.344 120.093 211.776V218.62C120.093 218.978 120.138 219.247 120.227 219.425C120.316 219.649 120.539 219.783 120.806 219.918C120.94 219.963 121.118 220.052 121.341 220.097C121.564 220.142 121.787 220.186 122.099 220.231V221.304H122.188ZM141.352 221.304H134.8C134.11 220.065 133.366 218.856 132.572 217.68C131.903 216.696 131.28 215.757 130.7 214.952L129.898 215.668V218.709C129.898 219.022 129.943 219.336 130.032 219.515C130.121 219.738 130.299 219.872 130.611 220.006C130.79 220.096 130.968 220.141 131.191 220.185C131.413 220.23 131.636 220.275 131.859 220.275V221.304H123.213V220.275C123.436 220.275 123.659 220.23 123.926 220.185C124.149 220.141 124.372 220.096 124.55 220.051C124.862 219.962 125.04 219.783 125.174 219.559C125.263 219.336 125.352 219.067 125.352 218.709V203.142C125.352 202.829 125.263 202.515 125.129 202.202C124.996 201.889 124.818 201.621 124.55 201.442C124.372 201.352 124.104 201.218 123.748 201.173C123.391 201.084 123.079 201.039 122.767 201.039V200.01L129.675 199.652L129.898 199.876V214.28C130.567 213.654 131.369 212.939 132.216 212.133C133.062 211.328 133.776 210.657 134.266 210.12C134.578 209.807 134.756 209.583 134.756 209.404C134.8 209.225 134.8 209.136 134.8 209.092C134.8 208.913 134.667 208.778 134.355 208.689C134.043 208.599 133.642 208.465 133.018 208.376V207.391H140.059V208.376C139.124 208.644 138.411 208.867 137.92 209.092C137.43 209.315 136.895 209.628 136.316 209.986C135.937 210.244 135.565 210.512 135.202 210.791C134.845 211.059 134.444 211.418 133.954 211.82C134.845 213.162 135.692 214.37 136.449 215.489C137.207 216.607 138.009 217.815 138.856 219.067C139.124 219.515 139.48 219.783 139.926 219.962C140.371 220.096 140.772 220.185 141.218 220.23V221.303H141.352V221.304ZM150.265 221.304H141.486V220.275C141.708 220.275 141.976 220.23 142.198 220.185C142.421 220.141 142.644 220.096 142.778 220.051C143.09 219.962 143.268 219.783 143.402 219.559C143.536 219.336 143.58 219.067 143.58 218.709V210.568C143.58 210.254 143.491 209.941 143.357 209.718C143.241 209.475 143.054 209.273 142.823 209.136C142.644 209.046 142.421 208.913 142.065 208.823C141.708 208.734 141.396 208.644 141.129 208.644V207.615L147.948 207.257L148.17 207.481V218.575C148.17 218.889 148.26 219.157 148.393 219.425C148.527 219.649 148.75 219.828 148.973 219.918C149.151 220.007 149.374 220.097 149.597 220.141C149.82 220.186 150.042 220.231 150.31 220.276V221.304H150.265L150.265 221.304ZM148.26 202.292C148.26 203.007 147.992 203.589 147.458 204.081C146.923 204.573 146.254 204.842 145.541 204.842C144.783 204.842 144.159 204.573 143.58 204.081C143.046 203.589 142.778 202.963 142.778 202.292C142.778 201.576 143.045 200.994 143.58 200.458C144.115 199.966 144.784 199.697 145.541 199.697C146.299 199.697 146.923 199.966 147.458 200.458C147.992 200.95 148.26 201.576 148.26 202.292V202.292ZM169.919 221.304H161.541V220.275C161.719 220.275 161.942 220.23 162.165 220.185C162.432 220.141 162.61 220.096 162.744 220.051C162.922 219.962 163.056 219.783 163.145 219.604C163.234 219.425 163.279 219.112 163.279 218.754V212.223C163.279 211.284 163.101 210.568 162.744 210.076C162.387 209.584 161.897 209.36 161.184 209.36C160.828 209.36 160.471 209.405 160.159 209.539C159.847 209.673 159.535 209.807 159.223 210.031C158.956 210.21 158.733 210.389 158.555 210.613C158.376 210.792 158.243 210.971 158.154 211.149V218.62C158.154 218.933 158.198 219.202 158.287 219.425C158.376 219.649 158.555 219.828 158.733 219.918C158.867 220.007 159.045 220.097 159.268 220.141L159.936 220.276V221.304H151.469V220.276C151.691 220.276 151.914 220.23 152.182 220.186C152.405 220.141 152.627 220.097 152.806 220.052C153.117 219.962 153.296 219.783 153.43 219.56C153.518 219.336 153.608 219.068 153.608 218.71V210.568C153.608 210.3 153.518 209.986 153.385 209.718C153.251 209.45 153.028 209.226 152.806 209.047C152.627 208.958 152.449 208.823 152.181 208.779C151.908 208.687 151.622 208.642 151.335 208.644V207.616L157.975 207.258L158.198 207.481V209.495H158.243C158.568 209.226 158.88 208.942 159.179 208.644C159.507 208.359 159.849 208.09 160.204 207.839C160.56 207.616 161.006 207.437 161.541 207.258C162.075 207.079 162.7 207.034 163.323 207.034C164.838 207.034 165.953 207.481 166.71 208.331C167.468 209.181 167.824 210.344 167.824 211.776V218.62C167.824 218.978 167.869 219.247 167.958 219.425C168.048 219.649 168.27 219.783 168.538 219.918C168.672 219.963 168.85 220.052 169.072 220.097C169.295 220.142 169.518 220.186 169.83 220.231V221.304H169.919ZM177.629 221.796C176.738 221.796 175.847 221.662 175 221.393C174.153 221.125 173.485 220.857 172.995 220.543L172.594 221.483H171.524L171.345 216.294H172.37C172.504 216.696 172.727 217.188 173.084 217.725C173.396 218.262 173.797 218.709 174.197 219.157C174.657 219.575 175.166 219.935 175.713 220.23C176.292 220.499 176.872 220.678 177.496 220.678C178.343 220.678 178.967 220.499 179.368 220.185C179.769 219.872 179.991 219.336 179.991 218.665C179.991 218.307 179.902 217.993 179.724 217.725C179.546 217.502 179.278 217.278 178.967 217.098C178.61 216.92 178.209 216.741 177.763 216.607C177.317 216.473 176.783 216.338 176.159 216.115C175.535 215.936 175 215.757 174.554 215.533C174.108 215.354 173.618 215.041 173.172 214.638C172.771 214.281 172.415 213.833 172.192 213.341C171.925 212.849 171.836 212.223 171.836 211.507C171.836 210.21 172.37 209.136 173.485 208.331C174.599 207.526 176.025 207.123 177.808 207.123C178.654 207.123 179.412 207.213 180.125 207.391C180.838 207.57 181.418 207.749 181.908 207.973L182.22 207.168H183.289L183.512 211.91H182.532C182.22 210.926 181.64 210.12 180.883 209.404C180.08 208.689 179.234 208.331 178.343 208.331C177.629 208.331 177.05 208.465 176.649 208.778C176.248 209.092 176.025 209.494 176.025 210.031C176.025 210.747 176.337 211.239 176.916 211.552C177.496 211.865 178.343 212.178 179.412 212.446C181.061 212.894 182.264 213.476 183.066 214.191C183.824 214.952 184.225 215.891 184.225 217.009C184.225 218.53 183.646 219.738 182.443 220.544C181.105 221.349 179.545 221.796 177.629 221.796H177.629Z" fill="#231F20"/>
</svg>
