<svg width="255" height="255" viewBox="0 0 255 255" fill="none" xmlns="http://www.w3.org/2000/svg">
<path fill-rule="evenodd" clip-rule="evenodd" d="M44 164.807H49.5365V141.92L58.1831 161.875C59.1625 164.273 60.5686 165.163 63.2939 165.163C66.0201 165.163 67.3403 164.273 68.3627 161.875L76.9662 141.92V164.807H82.5457V141.92C82.5457 139.699 81.6933 138.63 79.9044 138.052C75.6881 136.72 72.8768 137.875 71.5996 140.852L63.1249 160.586L54.9471 140.852C53.7118 137.876 50.8577 136.721 46.5993 138.052C44.8534 138.63 44.001 139.698 44.001 141.92V164.807H44ZM87.1449 146.186H92.7244V158.764C92.6824 159.474 92.9372 161.075 95.9613 161.118C97.5373 161.162 107.972 161.118 108.057 161.118V146.097H113.636V166.674C113.636 171.74 107.631 172.85 104.82 172.895H87.2718V169.029H104.862C108.44 168.629 108.014 166.763 108.014 166.141V164.629H96.2162C90.7217 164.584 87.1869 162.051 87.1449 159.162C87.1449 158.896 87.2718 146.274 87.1449 146.186ZM206.824 131.609C203.418 131.52 200.776 131.876 198.561 132.854C197.923 133.122 196.9 133.122 196.816 133.965C197.157 134.319 197.198 134.898 197.497 135.388C198.007 136.277 198.903 137.476 199.711 138.098C200.607 138.81 201.501 139.521 202.436 140.143C204.097 141.209 205.971 141.831 207.589 142.898C208.527 143.521 209.463 144.321 210.401 144.988C210.868 145.344 211.167 145.922 211.764 146.143V146.009C211.466 145.611 211.38 145.033 211.083 144.587C210.656 144.143 210.231 143.742 209.804 143.299C208.57 141.566 207.036 140.053 205.374 138.81C204.011 137.832 201.029 136.499 200.476 134.855L200.392 134.765C201.327 134.676 202.436 134.32 203.33 134.053C204.779 133.655 206.098 133.742 207.588 133.343C208.271 133.165 208.951 132.942 209.634 132.72V132.321C208.867 131.521 208.314 130.454 207.505 129.699C205.334 127.744 202.947 125.832 200.477 124.233C199.157 123.344 197.453 122.766 196.048 122.012C195.536 121.745 194.685 121.611 194.388 121.167C193.619 120.19 193.194 118.901 192.641 117.744C191.406 115.3 190.213 112.59 189.149 110.012C188.382 108.279 187.913 106.545 186.977 104.946C182.59 97.3905 177.819 92.8125 170.494 88.3242C168.919 87.3908 167.045 86.9904 165.042 86.5023C163.978 86.4575 162.913 86.3689 161.848 86.324C161.165 86.0133 160.485 85.1686 159.888 84.7682C157.461 83.1685 151.2 79.7021 149.41 84.2791C148.26 87.1677 151.114 90.0115 152.093 91.4787C152.819 92.5007 153.754 93.6562 154.267 94.8116C154.564 95.5666 154.649 96.3675 154.947 97.1673C155.628 99.1226 156.268 101.3 157.162 103.123C157.63 104.056 158.14 105.034 158.737 105.879C159.078 106.368 159.674 106.59 159.801 107.39C159.205 108.28 159.164 109.612 158.823 110.724C157.289 115.746 157.886 121.968 160.057 125.656C160.74 126.767 162.358 129.211 164.53 128.278C166.447 127.478 166.02 124.945 166.574 122.723C166.703 122.19 166.617 121.834 166.872 121.479V121.567C167.469 122.811 168.065 124.012 168.619 125.256C169.939 127.433 172.239 129.7 174.156 131.211C175.178 132.011 175.987 133.39 177.264 133.878V133.743H177.18C176.925 133.345 176.541 133.167 176.2 132.855C175.433 132.055 174.582 131.077 173.985 130.188C172.197 127.7 170.622 124.944 169.216 122.1C168.534 120.723 167.937 119.212 167.385 117.834C167.128 117.3 167.128 116.5 166.703 116.234C166.063 117.211 165.128 118.057 164.657 119.256C163.848 121.167 163.764 123.523 163.466 125.967C163.294 126.012 163.38 125.967 163.294 126.056C161.933 125.701 161.463 124.234 160.953 122.99C159.675 119.834 159.462 114.768 160.569 111.123C160.867 110.19 162.146 107.257 161.635 106.368C161.377 105.523 160.528 105.035 160.058 104.368C159.505 103.523 158.91 102.458 158.526 101.524C157.505 99.035 156.994 96.2798 155.886 93.7906C155.373 92.6352 154.48 91.4349 153.755 90.3691C152.946 89.1688 152.053 88.3242 151.414 86.9028C151.201 86.4137 150.903 85.6138 151.244 85.0809C151.328 84.7253 151.499 84.5918 151.838 84.5032C152.392 84.0141 153.969 84.6367 154.523 84.9026C156.098 85.569 157.418 86.1916 158.738 87.1239C159.335 87.5681 159.974 88.4128 160.741 88.6359H161.636C162.999 88.9467 164.531 88.7246 165.809 89.124C168.066 89.88 170.11 90.9907 171.943 92.1909C177.521 95.8794 182.122 101.124 185.23 107.39C185.741 108.412 185.954 109.345 186.424 110.412C187.319 112.591 188.426 114.812 189.319 116.945C190.214 119.034 191.066 121.168 192.343 122.901C192.982 123.834 195.537 124.322 196.687 124.811C197.54 125.211 198.859 125.568 199.627 126.056C201.074 126.989 202.522 128.056 203.886 129.078C204.566 129.61 206.697 130.72 206.824 131.609Z" fill="#00678C"/>
<path fill-rule="evenodd" clip-rule="evenodd" d="M163.381 92.9888C162.657 92.9888 162.147 93.0774 161.636 93.2109V93.2995H161.72C162.061 94.0107 162.657 94.4998 163.083 95.1214C163.424 95.8326 163.723 96.5438 164.063 97.255L164.147 97.1663C164.744 96.7221 165.043 96.0109 165.043 94.9441C164.787 94.6333 164.745 94.3215 164.532 94.0107C164.276 93.5665 163.723 93.3444 163.381 92.9888Z" fill="#00678C"/>
<path fill-rule="evenodd" clip-rule="evenodd" d="M117.896 164.807H133.909C135.783 164.807 137.573 164.408 139.02 163.696C141.448 162.541 142.598 160.986 142.598 158.942V154.676C142.598 153.032 141.278 151.475 138.638 150.41C137.275 149.877 135.571 149.565 133.91 149.565H127.182C124.924 149.565 123.86 148.853 123.561 147.299C123.519 147.122 123.519 146.943 123.519 146.766V144.143C123.519 144.009 123.519 143.832 123.561 143.655C123.859 142.455 124.455 142.143 126.415 141.922H142.812V138.054H127.223C124.965 138.054 123.773 138.189 122.708 138.544C119.429 139.61 117.98 141.299 117.98 144.276V147.655C117.98 150.276 120.792 152.499 125.562 153.032C126.072 153.077 126.626 153.077 127.18 153.077H132.93C133.143 153.077 133.355 153.077 133.525 153.122C135.272 153.299 136.038 153.61 136.549 154.275C136.89 154.631 136.976 154.943 136.976 155.343V158.721C136.976 159.119 136.72 159.655 136.209 160.098C135.696 160.542 134.887 160.853 133.823 160.898C133.61 160.898 133.484 160.943 133.269 160.943H117.896V164.807ZM177.265 158.097C177.265 162.053 180.119 164.274 185.827 164.719C186.381 164.764 186.891 164.807 187.445 164.807H201.926V160.941H187.318C184.079 160.941 182.845 160.096 182.845 158.052V138.053H177.264V158.097H177.265ZM146.132 158.274V144.498C146.132 140.987 148.516 138.852 153.16 138.187C153.671 138.142 154.182 138.097 154.65 138.097H165.212C165.766 138.097 166.235 138.142 166.789 138.187C171.431 138.852 173.773 140.987 173.773 144.498V158.274C173.773 161.117 172.794 162.629 170.493 163.652L175.944 168.806H169.514L165.084 164.63L160.611 164.896H154.649C153.67 164.896 152.562 164.764 151.412 164.453C147.879 163.429 146.132 161.474 146.132 158.274ZM152.137 157.965C152.137 158.142 152.223 158.318 152.266 158.543C152.564 160.141 154.011 161.031 156.226 161.031H161.252L156.653 156.675H163.083L167.129 160.498C167.897 160.053 168.365 159.43 168.535 158.63C168.578 158.453 168.578 158.232 168.578 158.052V144.852C168.578 144.675 168.578 144.499 168.535 144.32C168.237 142.809 166.79 141.966 164.617 141.966H156.226C153.755 141.966 152.137 143.076 152.137 144.852V157.965ZM204.482 164.852H205.292V161.608H206.356V160.941H203.375V161.608H204.482V164.852ZM210.657 164.852H211.424V160.941H210.275L209.338 163.609L208.317 160.941H207.209V164.852H207.933V161.875H207.976L209.04 164.852H209.594L210.658 161.875V164.852H210.657Z" fill="#CE8B2C"/>
</svg>
