<svg width="255" height="255" viewBox="0 0 255 255" fill="none" xmlns="http://www.w3.org/2000/svg">
<path d="M115.593 130.417H126.855L120.899 120.835L109.967 138.16H104.992L118.289 117.349C118.867 116.508 119.83 116 120.899 116C121.933 116 122.896 116.491 123.456 117.314L136.804 138.16H131.829L129.483 134.288H118.078L115.593 130.417ZM167.27 134.288V116.211H163.049V136.059C163.049 136.602 163.259 137.128 163.662 137.53C164.065 137.933 164.608 138.16 165.204 138.16H184.456L186.944 134.288H167.27ZM97.4249 131.048C101.524 131.048 104.853 127.738 104.853 123.639C104.853 119.54 101.526 116.211 97.4249 116.211H78.9558V138.162H83.1767V120.082H97.1451C99.1076 120.082 100.683 121.677 100.683 123.638C100.683 125.599 99.1062 127.194 97.1451 127.194L85.2432 127.176L97.8452 138.16H103.979L95.4989 131.047H97.4249V131.048ZM52.9774 138.16C46.9183 138.16 42 133.255 42 127.194C42 121.132 46.917 116.209 52.9774 116.209H65.7348C71.7965 116.209 76.7108 121.133 76.7108 127.194C76.7108 133.254 71.7965 138.16 65.7348 138.16H52.9774ZM65.451 134.288C69.3773 134.288 72.5575 131.117 72.5575 127.194C72.5575 123.27 69.3773 120.08 65.451 120.08H53.2585C49.3363 120.08 46.1547 123.269 46.1547 127.194C46.1547 131.117 49.3363 134.288 53.2585 134.288H65.451ZM145.618 138.16C139.557 138.16 134.635 133.255 134.635 127.194C134.635 121.132 139.557 116.209 145.618 116.209H160.771L158.299 120.08H145.899C141.974 120.08 138.784 123.269 138.784 127.194C138.784 131.117 141.974 134.288 145.899 134.288H161.121L158.634 138.16H145.618ZM197.243 134.288C194.003 134.288 191.252 132.116 190.411 129.12H208.454L210.941 125.249H190.411C191.252 122.271 194.003 120.08 197.243 120.08H209.628L212.133 116.209H196.962C190.902 116.209 185.979 121.133 185.979 127.194C185.979 133.254 190.902 138.16 196.962 138.16H209.979L212.467 134.288H197.243Z" fill="#EA1B22"/>
</svg>
