<svg width="255" height="255" viewBox="0 0 255 255" fill="none" xmlns="http://www.w3.org/2000/svg">
<path d="M183.1 115.054C180.19 116.643 180.311 121.776 183.464 122.998C186.859 124.22 190.496 124.343 193.891 125.198C194.74 125.443 195.589 125.809 195.953 126.665C196.801 128.376 196.074 130.943 194.134 131.554C191.345 132.409 188.071 132.409 185.404 131.309C183.585 130.576 182.736 128.743 182.615 127.031C181.888 127.031 181.039 127.031 180.311 127.154C180.433 128.865 180.796 130.698 182.13 131.798C184.313 133.509 187.101 133.754 189.769 133.876C192.194 133.876 194.861 133.631 196.923 132.287C199.348 130.576 199.59 126.054 196.68 124.587C194.013 123.243 190.981 123.12 188.193 122.509C186.859 122.143 185.283 122.02 184.07 121.165C182.494 119.698 183.221 116.643 185.283 116.154C187.95 115.42 190.86 115.298 193.406 116.276C194.983 116.765 195.589 118.476 195.831 119.82C196.559 119.82 197.286 119.82 198.135 119.82C198.135 118.354 197.65 116.765 196.438 115.787C194.498 114.198 191.83 114.076 189.526 114.076C187.465 113.954 185.161 113.954 183.1 115.054Z" fill="#326690"/>
<path d="M96.6489 115.665C95.4364 114.565 93.6177 114.198 92.0414 114.198C88.5252 114.198 85.0089 114.32 81.4927 114.32C81.4927 120.554 81.4927 126.909 81.4927 133.143C82.0989 133.143 82.7052 133.143 83.3114 133.143C83.3114 130.454 83.1902 127.765 83.3114 125.198C86.3427 125.198 89.2527 125.198 92.2839 125.198C94.4664 125.076 97.0127 124.098 97.8614 121.898C98.5889 119.82 98.3464 117.132 96.6489 115.665ZM95.6789 121.532C95.0727 123.12 93.2539 123.609 91.6777 123.732C88.8889 123.854 86.1002 123.732 83.4327 123.732C83.4327 121.165 83.4327 118.476 83.4327 115.909C86.1002 115.909 88.7677 115.909 91.4352 115.909C92.7689 115.909 94.3452 116.154 95.1939 117.254C96.0427 118.354 96.1639 120.065 95.6789 121.532Z" fill="black"/>
<path d="M224.446 114.32C224.446 120.554 224.446 126.787 224.446 133.143C229.781 133.143 235.238 133.143 240.573 133.143C240.573 132.654 240.573 132.165 240.573 131.554C235.965 131.432 231.358 131.554 226.629 131.432C226.629 125.687 226.629 119.943 226.629 114.198C225.901 114.32 225.174 114.32 224.446 114.32Z" fill="#326690"/>
<path d="M131.326 116.765C131.326 118.109 131.326 119.454 131.326 120.798C130.478 120.798 129.75 120.798 128.901 120.798C128.901 121.165 128.901 121.654 128.901 122.02C129.75 122.02 130.599 122.02 131.326 122.02C131.326 124.831 131.326 127.765 131.326 130.576C131.326 131.431 131.569 132.287 132.296 132.776C133.63 133.387 135.085 133.265 136.54 133.143C136.54 132.776 136.54 132.287 136.54 131.92C135.57 132.043 134.6 132.165 133.751 131.676C133.145 131.309 133.266 130.576 133.145 129.965C133.145 127.276 133.145 124.709 133.145 122.02C134.236 122.02 135.328 122.02 136.419 122.02C136.419 121.531 136.419 121.165 136.298 120.676C135.206 120.676 134.115 120.676 133.024 120.676C133.024 119.331 133.024 117.987 133.024 116.643C132.66 116.765 131.933 116.765 131.326 116.765Z" fill="white"/>
<path d="M115.928 121.532C114.23 122.632 114.23 125.81 116.291 126.665C119.08 127.643 122.233 127.398 125.143 128.254C126.598 128.743 126.719 130.943 125.385 131.676C123.445 132.654 121.141 132.532 119.08 132.165C117.625 131.921 116.413 130.943 116.291 129.354C115.564 129.354 114.836 129.354 114.23 129.354C114.473 130.454 114.715 131.676 115.685 132.41C117.261 133.51 119.323 133.51 121.141 133.632C123.081 133.632 125.143 133.51 126.84 132.532C128.295 131.676 128.78 129.721 127.931 128.376C127.325 127.398 126.234 127.032 125.143 126.787C122.839 126.298 120.414 126.298 118.11 125.81C117.261 125.565 116.534 124.954 116.534 124.098C116.534 122.876 117.868 122.265 118.959 122.021C120.656 121.776 122.596 121.654 124.294 122.387C125.264 122.754 125.506 123.732 125.749 124.71C126.476 124.71 127.083 124.71 127.81 124.71C127.689 123.61 127.325 122.387 126.355 121.776C124.536 120.554 122.354 120.554 120.293 120.676C118.838 120.554 117.261 120.676 115.928 121.532Z" fill="white"/>
<path d="M158.971 120.921C158.123 121.287 157.638 122.143 157.153 122.998C157.153 122.265 157.153 121.532 157.153 120.921C156.546 120.921 155.94 120.921 155.213 120.921C155.091 125.076 155.213 129.109 155.213 133.265C155.819 133.265 156.425 133.265 157.031 133.265C157.031 131.187 157.031 128.987 157.031 126.909C157.031 125.443 157.516 123.732 158.729 122.876C160.063 121.898 161.76 122.143 163.336 122.143C163.336 121.654 163.336 121.043 163.336 120.554C161.881 120.432 160.426 120.309 158.971 120.921Z" fill="white"/>
<path d="M204.561 115.298C207.229 113.954 210.26 113.71 213.17 113.954C215.959 114.198 218.747 115.176 220.566 117.376C222.87 119.821 223.355 123.732 222.385 126.91C221.9 128.743 220.687 130.087 219.354 131.31C220.445 132.043 221.536 132.776 222.628 133.632C222.143 134.121 221.657 134.487 221.172 134.976C220.081 134.243 218.99 133.387 217.899 132.776C217.05 132.776 216.201 133.265 215.231 133.51C212.806 133.998 210.139 133.998 207.714 133.51C205.046 133.021 202.379 131.432 200.924 128.987C199.469 126.665 199.347 123.61 199.954 121.043C200.681 118.476 202.379 116.398 204.561 115.298ZM208.199 115.787C205.652 116.398 203.227 118.232 202.379 120.798C201.53 123.61 201.772 126.91 203.834 129.232C205.652 131.31 208.32 132.165 210.987 132.165C213.897 132.287 217.05 131.432 218.99 129.11C221.658 125.687 221.294 120.187 217.778 117.498C215.11 115.176 211.472 115.054 208.199 115.787Z" fill="#326690"/>
<path d="M131.326 116.765C131.933 116.765 132.539 116.765 133.266 116.765C133.266 118.11 133.266 119.454 133.266 120.798C134.358 120.798 135.449 120.798 136.54 120.798C136.54 121.287 136.54 121.654 136.661 122.143C135.57 122.143 134.479 122.143 133.388 122.143C133.388 124.832 133.388 127.398 133.388 130.087C133.388 130.698 133.388 131.432 133.994 131.798C134.843 132.165 135.813 132.043 136.783 132.043C136.783 132.41 136.783 132.898 136.783 133.265C135.328 133.387 133.873 133.51 132.539 132.898C131.69 132.532 131.448 131.554 131.569 130.698C131.569 127.887 131.569 124.954 131.569 122.143C130.72 122.143 129.871 122.143 129.144 122.143C129.144 121.776 129.144 121.287 129.144 120.921C129.993 120.921 130.72 120.921 131.569 120.921C131.326 119.454 131.326 118.11 131.326 116.765Z" fill="black"/>
<path d="M110.471 121.532C108.289 120.309 105.621 120.187 103.196 120.554C101.135 120.921 99.195 122.021 98.3463 123.976C97.4975 125.932 97.4975 128.254 98.4675 130.209C99.5588 132.287 101.863 133.387 104.045 133.509C106.834 133.754 109.986 133.387 112.048 131.187C114.23 128.376 113.745 123.365 110.471 121.532ZM110.108 130.698C109.016 131.798 107.44 132.287 105.985 132.287C104.288 132.409 102.469 132.043 101.256 130.943C99.68 129.476 99.4375 127.032 100.044 124.954C100.65 123.121 102.348 122.021 104.166 121.776C105.864 121.532 107.804 121.654 109.38 122.632C110.593 123.365 111.199 124.709 111.32 126.054C111.563 127.765 111.32 129.476 110.108 130.698Z" fill="black"/>
<path d="M115.928 121.532C117.14 120.676 118.716 120.554 120.171 120.432C122.233 120.309 124.536 120.309 126.234 121.532C127.204 122.143 127.568 123.365 127.689 124.465C126.961 124.465 126.355 124.465 125.628 124.465C125.506 123.487 125.143 122.632 124.173 122.143C122.475 121.409 120.656 121.409 118.838 121.776C117.746 121.898 116.413 122.509 116.413 123.854C116.291 124.709 117.14 125.443 117.989 125.565C120.293 126.176 122.718 126.054 125.021 126.543C126.113 126.787 127.204 127.276 127.81 128.132C128.659 129.476 128.174 131.554 126.719 132.287C125.021 133.265 122.96 133.387 121.02 133.387C119.201 133.265 117.14 133.265 115.564 132.165C114.594 131.432 114.23 130.332 114.109 129.109C114.836 129.109 115.564 129.109 116.17 129.109C116.17 130.698 117.504 131.798 118.959 131.92C121.02 132.165 123.324 132.409 125.264 131.432C126.598 130.698 126.476 128.498 125.021 128.009C122.111 127.154 118.959 127.398 116.17 126.42C114.23 125.809 114.23 122.632 115.928 121.532Z" fill="black"/>
<path d="M142.36 120.676C144.3 120.187 146.483 120.187 148.423 120.798C149.514 121.165 150.363 122.02 151.211 122.754C151.211 122.02 151.333 121.409 151.333 120.798C151.939 120.798 152.545 120.798 153.151 120.798C153.273 124.587 153.151 128.376 153.273 132.165C153.394 133.754 153.03 135.465 151.818 136.565C150.241 138.031 147.938 138.276 145.876 138.276C144.058 138.276 142.118 138.154 140.42 137.298C139.329 136.687 138.722 135.465 138.48 134.243C139.086 134.243 139.693 134.243 140.299 134.243C140.663 135.098 141.026 136.076 141.875 136.443C143.209 137.054 144.664 137.054 146.119 137.054C147.695 136.931 149.514 136.687 150.484 135.343C151.454 133.998 151.211 132.287 151.211 130.698C149.271 132.776 146.24 133.143 143.573 132.776C141.875 132.531 140.178 131.92 138.965 130.576C137.631 128.865 137.51 126.543 137.995 124.587C138.48 122.631 140.42 121.165 142.36 120.676ZM143.936 121.898C142.603 122.143 141.148 122.754 140.42 123.976C139.571 125.443 139.571 127.398 140.056 128.865C140.663 130.454 142.481 131.309 144.058 131.554C146.119 131.798 148.544 131.554 149.999 129.965C151.696 127.887 151.454 124.343 149.271 122.754C147.816 121.654 145.755 121.654 143.936 121.898Z" fill="black"/>
<path d="M158.971 120.92C160.426 120.309 161.881 120.431 163.336 120.431C163.336 120.92 163.336 121.531 163.336 122.02C161.76 122.02 160.063 121.776 158.729 122.754C157.516 123.609 157.031 125.32 157.031 126.787C157.031 128.865 157.031 131.065 157.031 133.142C156.425 133.142 155.819 133.142 155.213 133.142C155.091 128.987 155.091 124.954 155.213 120.798C155.819 120.798 156.425 120.798 157.153 120.798C157.153 121.531 157.153 122.265 157.153 122.876C157.638 122.142 158.123 121.287 158.971 120.92Z" fill="black"/>
<path d="M164.064 123.487C165.276 121.409 167.823 120.554 170.126 120.431C172.551 120.309 175.219 120.676 176.916 122.509C178.25 123.731 178.614 125.565 178.735 127.398C174.127 127.398 169.641 127.398 165.034 127.398C165.155 128.62 165.519 129.965 166.489 130.82C168.308 132.409 170.975 132.654 173.158 132.043C174.612 131.676 175.825 130.576 176.31 129.109C177.037 129.109 177.765 129.109 178.371 129.109C177.765 131.187 175.946 132.654 173.885 133.143C171.096 133.754 167.822 133.631 165.397 131.92C162.972 130.209 162.488 126.176 164.064 123.487ZM167.58 122.509C166.246 123.243 165.519 124.709 165.276 126.176C169.156 126.176 173.036 126.176 176.916 126.176C176.795 125.32 176.553 124.343 175.946 123.731C173.885 121.287 170.126 121.043 167.58 122.509Z" fill="black"/>
<path d="M45.845 100.998C43.5413 100.632 41.1163 100.509 38.8125 100.876C37.4788 101.12 36.145 101.732 35.0538 102.343C31.295 101.12 27.0513 100.387 23.1713 101.12C20.3825 101.609 17.715 103.32 16.26 105.887C14.4413 108.943 14.0775 112.609 14.32 116.154C14.805 120.065 15.775 123.976 16.8663 127.765C17.8363 131.065 18.9275 134.365 20.7463 137.298C21.7163 138.887 23.1713 140.598 25.1113 141.087C26.6875 141.454 28.2638 140.965 29.4763 139.987C30.0825 140.598 30.81 141.087 31.6588 141.332C33.9625 142.187 36.5088 142.187 38.8125 141.209C38.9338 144.387 38.8125 147.687 40.025 150.62C40.51 152.087 41.2375 153.432 42.5713 154.287C44.0263 155.265 45.7238 155.387 47.4213 155.143C48.8763 154.898 50.4525 154.409 51.665 153.676C52.9988 152.82 54.09 151.598 54.6963 150.132C56.1513 146.832 56.2725 143.287 56.3938 139.743C59.7888 139.987 63.305 139.132 65.8513 136.809C66.8213 135.954 67.67 134.609 67.3063 133.265C66.9425 132.043 65.6088 131.187 64.3963 131.309C63.0625 131.432 61.85 131.798 60.5163 131.798C63.4263 126.665 65.73 121.165 66.7 115.42C67.0638 112.976 67.4275 110.532 66.7 108.087C66.3363 106.743 65.3663 105.643 64.3963 104.665C62.2138 102.465 59.1825 100.998 56.1513 100.387C52.635 99.6538 49.1188 100.02 45.845 100.998Z" fill="white"/>
<path d="M45.7237 102.465C49.3612 101.365 53.2412 100.998 56.8787 102.098C59.7887 102.954 62.4562 104.665 64.275 107.109C65.0025 108.087 65.245 109.432 65.245 110.654C65.3662 112.854 64.8812 115.054 64.3962 117.132C63.0625 122.754 60.6375 128.009 57.6062 132.898C59.3037 133.632 61.2437 133.265 62.9412 133.02C63.6687 132.898 64.6387 132.654 65.1237 133.387C65.6087 134.12 65.1237 134.976 64.6387 135.465C62.0925 138.032 58.2125 138.643 54.8175 138.032C54.4537 141.087 54.09 144.143 53.605 147.32C53.3625 149.032 52.7562 150.865 51.4225 151.965C50.21 153.065 48.5125 153.554 46.9362 153.798C45.36 154.043 43.42 153.92 42.2075 152.698C40.8737 151.476 40.025 149.643 39.9037 147.932C39.54 144.876 39.54 141.698 39.54 138.643C38.085 139.865 36.145 140.598 34.205 140.476C32.8712 140.354 31.295 140.109 30.325 139.132C29.7187 138.643 29.84 137.665 30.4462 137.176C31.5375 136.32 32.9925 136.443 34.205 135.954C35.175 135.709 35.66 134.732 36.145 134.12C35.0537 133.998 33.9625 133.754 33.1137 133.265C31.6587 134.854 30.2037 136.565 28.87 138.154C28.0212 139.132 26.93 139.987 25.5962 139.743C24.1412 139.498 23.05 138.398 22.2012 137.298C20.625 134.976 19.5337 132.287 18.685 129.598C17.3512 125.198 16.26 120.798 15.6537 116.276C15.29 112.854 15.6537 109.187 17.5937 106.376C19.17 104.054 21.8375 102.832 24.505 102.587C28.1425 102.22 31.78 102.954 35.175 104.176C37.9637 102.343 41.6012 101.976 44.875 102.709C45.2387 102.465 45.4812 102.587 45.7237 102.465ZM48.3912 103.443C49.1187 103.932 49.8462 104.298 50.5737 104.787C53.4837 106.743 55.7875 109.554 57.1212 112.732C57.485 113.709 57.97 114.565 57.8487 115.665C57.8487 117.743 57.1212 119.82 57.3637 121.898C57.6062 124.098 58.0912 126.42 57.485 128.62C57.3637 129.354 56.8787 130.087 56.6362 130.82C56.6362 130.943 56.7575 131.187 56.7575 131.187C57 130.82 57.2425 130.454 57.485 130.087C59.7887 126.298 61.4862 122.143 62.6987 117.865C63.305 115.543 63.79 113.098 63.79 110.654C63.79 109.676 63.6687 108.576 63.0625 107.72C61.7287 106.009 59.91 104.665 57.8487 103.809C54.8175 102.832 51.5437 102.709 48.3912 103.443ZM39.9037 103.687C37.6 103.932 35.4175 105.276 34.0837 107.109C32.265 109.676 31.4162 112.854 31.1737 115.909C33.1137 115.054 35.175 114.198 37.3575 114.687C38.6912 115.054 39.7825 116.276 40.025 117.62C40.6312 120.432 40.995 123.243 40.3887 126.054C39.9037 128.254 38.57 130.209 38.085 132.532C38.6912 132.532 39.2975 132.654 39.7825 132.898C40.8737 133.509 41.48 134.732 41.3587 135.954C41.2375 139.009 41.2375 142.065 41.48 145.12C41.6012 146.343 41.6012 147.687 41.965 148.909C42.45 150.376 43.42 151.843 44.9962 152.209C46.6937 152.454 48.3912 151.965 49.9675 151.232C51.4225 150.498 52.15 148.787 52.3925 147.198C52.8775 143.898 53.2412 140.598 53.605 137.298C53.7262 136.076 53.4837 134.854 54.2112 133.754C54.575 133.02 55.3025 132.776 55.9087 132.409C55.4237 131.676 54.8175 130.943 54.3325 130.209C52.7562 126.787 50.5737 123.609 49.8462 119.943C49.6037 118.354 49.725 116.52 51.0587 115.42C52.5137 114.198 54.4537 114.32 56.2725 114.32C55.1812 111.265 53.2412 108.576 50.8162 106.62C47.6637 104.298 43.6625 103.198 39.9037 103.687ZM23.7775 103.932C21.7162 104.298 19.655 105.52 18.5637 107.476C17.1087 110.043 16.9875 112.976 17.23 115.787C17.715 119.454 18.5637 123.12 19.655 126.787C20.625 129.843 21.595 132.898 23.2925 135.587C23.8987 136.565 24.6262 137.543 25.7175 137.909C26.6875 138.154 27.415 137.298 28.0212 136.687C29.2337 135.098 30.6887 133.632 32.0225 132.043C30.0825 130.332 29.1125 127.643 29.355 124.954C29.5975 122.998 29.7187 120.92 29.5975 118.843C29.355 116.032 29.84 113.098 30.6887 110.287C31.295 108.209 32.3862 106.376 33.8412 104.787C30.5675 104.054 27.0512 103.32 23.7775 103.932ZM52.0287 116.52C51.0587 117.254 51.0587 118.72 51.3012 119.82C52.0287 123.365 54.09 126.298 55.545 129.476C56.7575 127.154 56.03 124.465 55.7875 121.898C55.545 119.82 56.1512 117.865 56.2725 115.909C54.9387 115.909 53.3625 115.665 52.0287 116.52ZM31.0525 117.865C31.0525 119.576 31.1737 121.287 31.0525 122.876C30.9312 124.343 30.5675 125.809 30.9312 127.276C31.4162 129.965 33.72 132.165 36.5087 132.165C36.8725 130.82 37.3575 129.476 37.9637 128.254C39.6612 124.954 39.2975 121.165 38.4487 117.743C38.2062 116.765 37.3575 116.032 36.3875 116.032C34.4475 116.032 32.6287 116.887 31.0525 117.865ZM55.6662 134.365C55.1812 134.854 55.1812 135.587 55.1812 136.198C56.2725 136.565 57.485 136.565 58.6975 136.443C60.395 136.198 62.2137 135.709 63.5475 134.365C61.4862 134.609 59.1825 135.098 57.1212 134.12C56.6362 133.876 56.03 134.12 55.6662 134.365ZM35.66 136.809C34.4475 137.543 32.9925 137.42 31.9012 138.032C34.3262 139.254 37.8425 138.887 39.54 136.565C40.3887 135.709 39.54 133.998 38.4487 134.12C37.2362 134.854 36.7512 136.198 35.66 136.809Z" fill="white"/>
<path d="M52.5139 117.01C53.2414 116.521 54.2114 116.521 54.9389 116.765C54.9389 117.743 53.7264 118.476 52.8776 117.987C52.6351 117.865 52.1501 117.376 52.5139 117.01Z" fill="white"/>
<path d="M35.4176 117.131C36.1451 116.887 36.9939 117.009 37.6001 117.498C37.9639 117.865 37.6001 118.476 37.2364 118.598C36.3876 119.209 35.0539 118.598 34.9326 117.62C34.9326 117.376 35.1751 117.131 35.4176 117.131Z" fill="white"/>
<path d="M48.3914 103.443C51.4226 102.709 54.8176 102.832 57.7276 103.932C59.7888 104.665 61.6076 106.132 62.9413 107.843C63.6688 108.698 63.6688 109.798 63.6688 110.776C63.6688 113.22 63.1838 115.543 62.5776 117.987C61.3651 122.265 59.6676 126.42 57.3638 130.209C57.1213 130.576 56.8789 130.943 56.6364 131.309C56.6364 131.187 56.5151 130.943 56.5151 130.943C56.7576 130.209 57.2426 129.476 57.3638 128.743C57.9701 126.543 57.4851 124.22 57.2426 122.02C57.0001 119.943 57.7276 117.865 57.7276 115.787C57.8488 114.809 57.3639 113.832 57.0001 112.854C55.5451 109.676 53.3626 106.865 50.4526 104.909C49.9676 104.298 49.1189 103.932 48.3914 103.443Z" fill="#326690"/>
<path d="M39.9037 103.687C43.6625 103.198 47.6637 104.298 50.695 106.62C53.12 108.576 55.1812 111.265 56.1512 114.32C54.4537 114.32 52.3925 114.198 50.9375 115.42C49.6037 116.52 49.4825 118.354 49.725 119.943C50.4525 123.731 52.635 126.909 54.2112 130.209C54.575 131.065 55.1812 131.676 55.7875 132.409C55.06 132.776 54.4537 133.02 54.09 133.754C53.4837 134.854 53.7262 136.076 53.4837 137.298C53.12 140.598 52.7562 143.898 52.2712 147.198C52.0287 148.787 51.3012 150.498 49.8462 151.231C48.3912 151.965 46.5725 152.454 44.875 152.209C43.2987 151.965 42.2075 150.376 41.8437 148.909C41.48 147.687 41.48 146.343 41.3587 145.12C41.2375 142.065 41.2375 139.009 41.2375 135.954C41.3587 134.731 40.7525 133.509 39.6612 132.898C39.1762 132.654 38.57 132.531 37.9637 132.531C38.4487 130.331 39.7825 128.376 40.2675 126.054C40.8737 123.243 40.51 120.431 39.9037 117.62C39.6612 116.276 38.57 115.054 37.2362 114.687C35.0537 114.198 32.9925 114.931 31.0525 115.909C31.295 112.854 32.1437 109.676 33.9625 107.109C35.4175 105.276 37.6 104.054 39.9037 103.687Z" fill="#326690"/>
<path d="M23.7776 103.932C27.1726 103.321 30.5676 103.932 33.8414 104.909C32.3864 106.498 31.2951 108.332 30.6889 110.409C29.8401 113.098 29.4764 116.032 29.5976 118.965C29.7189 121.043 29.7189 122.998 29.3551 125.076C28.9914 127.643 30.0826 130.332 32.0226 132.165C30.6889 133.754 29.3551 135.221 28.0214 136.809C27.4151 137.543 26.6876 138.276 25.7176 138.032C24.6264 137.665 23.8989 136.687 23.2926 135.709C21.5951 133.021 20.6251 129.965 19.6551 126.909C18.5639 123.365 17.7151 119.698 17.2301 115.909C16.9876 113.098 17.1089 110.043 18.5639 107.598C19.6551 105.643 21.5951 104.421 23.7776 103.932Z" fill="#326690"/>
<path d="M52.0288 116.52C53.2413 115.665 54.9388 115.787 56.2725 115.909C56.1513 117.865 55.545 119.82 55.7875 121.898C56.03 124.343 56.6363 127.031 55.545 129.476C53.9688 126.298 51.9075 123.365 51.3013 119.82C51.18 118.72 51.18 117.376 52.0288 116.52ZM52.5138 117.009C52.15 117.376 52.5138 117.865 52.8775 117.987C53.7263 118.476 54.9388 117.743 54.9388 116.765C54.2113 116.52 53.2413 116.52 52.5138 117.009Z" fill="#326690"/>
<path d="M31.0526 117.865C32.6288 116.887 34.4476 116.032 36.2663 116.154C37.2363 116.154 38.0851 116.887 38.3276 117.865C39.1763 121.287 39.4188 125.076 37.8426 128.376C37.2363 129.598 36.7513 130.943 36.3876 132.287C33.5988 132.287 31.2951 129.965 30.8101 127.398C30.4463 125.932 30.9313 124.465 30.9313 122.998C31.1738 121.165 31.0526 119.576 31.0526 117.865ZM35.4176 117.132C35.1751 117.254 34.9326 117.376 34.9326 117.62C35.0538 118.598 36.3876 119.209 37.2363 118.598C37.6001 118.354 37.9638 117.865 37.6001 117.498C36.9938 117.009 36.1451 116.887 35.4176 117.132Z" fill="#326690"/>
<path d="M55.6664 134.365C56.0301 134.12 56.6364 133.754 57.1214 134.12C59.0614 135.22 61.3651 134.609 63.5476 134.365C62.2139 135.587 60.5164 136.198 58.6976 136.443C57.4851 136.565 56.2726 136.687 55.1814 136.198C55.1814 135.587 55.1814 134.854 55.6664 134.365Z" fill="#326690"/>
<path d="M35.66 136.809C36.7513 136.198 37.2363 134.854 38.3275 134.12C39.4188 133.998 40.3888 135.709 39.4188 136.565C37.7213 138.887 34.205 139.376 31.78 138.032C32.9925 137.543 34.4475 137.543 35.66 136.809Z" fill="#326690"/>
<path d="M45.8451 100.998C49.1189 100.143 52.6351 99.7758 56.0301 100.387C59.0614 100.876 61.9714 102.465 64.2751 104.665C65.2451 105.643 66.2151 106.743 66.5789 108.087C67.3064 110.531 66.9426 112.976 66.5789 115.42C65.4876 121.165 63.3051 126.665 60.3951 131.798C61.7289 131.798 62.9414 131.431 64.2751 131.309C65.4876 131.187 66.9426 132.043 67.1851 133.265C67.5489 134.609 66.7001 135.954 65.7301 136.809C63.0626 139.131 59.4251 139.865 56.1514 139.743C55.9089 143.287 55.9089 146.831 54.4539 150.131C53.7264 151.598 52.7564 152.82 51.4226 153.676C50.0889 154.531 48.6339 154.898 47.1789 155.143C45.6026 155.387 43.7839 155.265 42.3289 154.287C40.9951 153.431 40.2676 152.087 39.7826 150.62C38.6913 147.565 38.8126 144.387 38.5701 141.209C36.2663 142.187 33.7201 142.187 31.4164 141.331C30.5676 141.087 29.8401 140.598 29.2338 139.987C28.0213 140.965 26.4451 141.454 24.8689 141.087C22.9289 140.598 21.5951 138.887 20.5038 137.298C18.6851 134.365 17.5939 131.065 16.6239 127.765C15.5326 123.976 14.5626 120.187 14.0776 116.154C13.8351 112.609 14.0776 108.943 16.0176 105.887C17.4726 103.443 20.1401 101.731 22.9289 101.12C26.9301 100.265 31.0526 101.12 34.8114 102.22C36.0239 101.609 37.2363 100.998 38.5701 100.754C41.1164 100.387 43.5413 100.631 45.8451 100.998ZM45.7239 102.465C45.4814 102.587 45.1176 102.343 44.8751 102.343C41.6014 101.609 37.9639 101.976 35.1751 103.809C31.7801 102.587 28.1426 101.854 24.5051 102.22C21.8376 102.465 19.0489 103.809 17.5938 106.009C15.6538 108.943 15.4113 112.609 15.6538 115.909C16.2601 120.431 17.3513 124.831 18.6851 129.109C19.6551 131.798 20.6251 134.487 22.2013 136.809C23.0501 137.909 24.1413 139.131 25.5963 139.254C26.9301 139.376 28.0213 138.643 28.8701 137.665C30.3251 135.954 31.6588 134.365 33.1138 132.776C34.0839 133.265 35.1751 133.509 36.1451 133.631C35.5388 134.365 35.0539 135.22 34.2051 135.465C32.9926 135.954 31.5376 135.831 30.4463 136.687C29.8401 137.176 29.7189 138.154 30.3251 138.643C31.2951 139.62 32.8714 139.865 34.2051 139.987C36.1451 140.109 38.0851 139.498 39.5401 138.154C39.5401 141.209 39.5401 144.387 39.9039 147.443C40.0251 149.276 40.8738 151.109 42.2076 152.209C43.4201 153.309 45.3601 153.554 46.9364 153.309C48.5126 152.943 50.2101 152.454 51.4226 151.476C52.7564 150.254 53.3626 148.543 53.6051 146.831C54.0901 143.776 54.4539 140.72 54.8176 137.543C58.2126 138.154 62.0926 137.42 64.6389 134.976C65.1239 134.487 65.7301 133.509 65.1239 132.898C64.6389 132.287 63.6689 132.409 62.9414 132.531C61.2439 132.898 59.3039 133.265 57.6064 132.409C60.6376 127.52 63.0626 122.265 64.3964 116.643C64.8814 114.565 65.2451 112.365 65.2451 110.165C65.1239 108.943 65.0026 107.598 64.2751 106.62C62.4564 104.176 59.7889 102.465 56.8789 101.609C53.3626 101.12 49.3614 101.365 45.7239 102.465Z" fill="black"/>
</svg>
