<svg width="240" height="109" viewBox="0 0 240 109" fill="none" xmlns="http://www.w3.org/2000/svg">
<path d="M26.792 43.166C30.3053 43.166 33.0027 43.7893 34.884 45.036C36.7653 46.26 37.706 48.2773 37.706 51.088C37.706 53.9213 36.754 55.9727 34.85 57.242C32.946 58.4887 30.226 59.112 26.69 59.112H25.024V67H19.72V43.778C20.876 43.5513 22.1 43.3927 23.392 43.302C24.684 43.2113 25.8173 43.166 26.792 43.166ZM27.132 47.688C26.7467 47.688 26.3613 47.6993 25.976 47.722C25.6133 47.7447 25.296 47.7673 25.024 47.79V54.59H26.69C28.526 54.59 29.9087 54.3407 30.838 53.842C31.7673 53.3433 32.232 52.414 32.232 51.054C32.232 50.3967 32.1073 49.8527 31.858 49.422C31.6313 48.9913 31.2913 48.6513 30.838 48.402C30.4073 48.13 29.8747 47.9487 29.24 47.858C28.6053 47.7447 27.9027 47.688 27.132 47.688ZM52.0389 53.604C51.5855 53.4907 51.0529 53.3773 50.4409 53.264C49.8289 53.128 49.1715 53.06 48.4689 53.06C48.1515 53.06 47.7662 53.094 47.3129 53.162C46.8822 53.2073 46.5535 53.264 46.3269 53.332V67H41.2609V50.068C42.1675 49.7507 43.2329 49.456 44.4569 49.184C45.7035 48.8893 47.0862 48.742 48.6049 48.742C48.8769 48.742 49.2055 48.7647 49.5909 48.81C49.9762 48.8327 50.3615 48.878 50.7469 48.946C51.1322 48.9913 51.5175 49.0593 51.9029 49.15C52.2882 49.218 52.6169 49.3087 52.8889 49.422L52.0389 53.604ZM72.0006 58.024C72.0006 59.4293 71.7966 60.7213 71.3886 61.9C70.9806 63.056 70.3912 64.0533 69.6206 64.892C68.8499 65.708 67.9206 66.3427 66.8326 66.796C65.7672 67.2493 64.5659 67.476 63.2286 67.476C61.9139 67.476 60.7126 67.2493 59.6246 66.796C58.5592 66.3427 57.6412 65.708 56.8706 64.892C56.0999 64.0533 55.4992 63.056 55.0686 61.9C54.6379 60.7213 54.4226 59.4293 54.4226 58.024C54.4226 56.6187 54.6379 55.338 55.0686 54.182C55.5219 53.026 56.1339 52.04 56.9046 51.224C57.6979 50.408 58.6272 49.7733 59.6926 49.32C60.7806 48.8667 61.9592 48.64 63.2286 48.64C64.5206 48.64 65.6992 48.8667 66.7646 49.32C67.8526 49.7733 68.7819 50.408 69.5526 51.224C70.3232 52.04 70.9239 53.026 71.3546 54.182C71.7852 55.338 72.0006 56.6187 72.0006 58.024ZM66.8326 58.024C66.8326 56.46 66.5152 55.236 65.8806 54.352C65.2686 53.4453 64.3846 52.992 63.2286 52.992C62.0726 52.992 61.1772 53.4453 60.5426 54.352C59.9079 55.236 59.5906 56.46 59.5906 58.024C59.5906 59.588 59.9079 60.8347 60.5426 61.764C61.1772 62.6707 62.0726 63.124 63.2286 63.124C64.3846 63.124 65.2686 62.6707 65.8806 61.764C66.5152 60.8347 66.8326 59.588 66.8326 58.024ZM74.2589 73.29C73.9416 73.29 73.4769 73.256 72.8649 73.188C72.2303 73.12 71.6409 72.9953 71.0969 72.814L71.7769 68.7C72.1169 68.8133 72.4343 68.8927 72.7289 68.938C73.0009 68.9833 73.3523 69.006 73.7829 69.006C74.5763 69.006 75.1316 68.768 75.4489 68.292C75.7663 67.816 75.9249 67.1247 75.9249 66.218V49.116H80.9909V66.354C80.9909 68.7113 80.4129 70.4567 79.2569 71.59C78.1009 72.7233 76.4349 73.29 74.2589 73.29ZM81.4669 43.948C81.4669 44.8773 81.1609 45.614 80.5489 46.158C79.9596 46.6793 79.2569 46.94 78.4409 46.94C77.6249 46.94 76.9109 46.6793 76.2989 46.158C75.7096 45.614 75.4149 44.8773 75.4149 43.948C75.4149 43.0187 75.7096 42.2933 76.2989 41.772C76.9109 41.228 77.6249 40.956 78.4409 40.956C79.2569 40.956 79.9596 41.228 80.5489 41.772C81.1609 42.2933 81.4669 43.0187 81.4669 43.948ZM84.903 58.194C84.903 56.6073 85.141 55.2247 85.617 54.046C86.1157 52.8447 86.7617 51.8473 87.555 51.054C88.3484 50.2607 89.255 49.66 90.275 49.252C91.3177 48.844 92.383 48.64 93.471 48.64C96.0097 48.64 98.0157 49.422 99.489 50.986C100.962 52.5273 101.699 54.8053 101.699 57.82C101.699 58.1147 101.688 58.4433 101.665 58.806C101.642 59.146 101.62 59.452 101.597 59.724H90.105C90.2184 60.7667 90.7057 61.594 91.567 62.206C92.4284 62.818 93.5844 63.124 95.035 63.124C95.9644 63.124 96.871 63.0447 97.755 62.886C98.6617 62.7047 99.3984 62.4893 99.965 62.24L100.645 66.354C100.373 66.49 100.01 66.626 99.557 66.762C99.1037 66.898 98.5937 67.0113 98.027 67.102C97.483 67.2153 96.8937 67.306 96.259 67.374C95.6244 67.442 94.9897 67.476 94.355 67.476C92.7457 67.476 91.3404 67.238 90.139 66.762C88.9604 66.286 87.9744 65.64 87.181 64.824C86.4104 63.9853 85.8324 62.9993 85.447 61.866C85.0844 60.7327 84.903 59.5087 84.903 58.194ZM96.803 56.256C96.7804 55.8253 96.701 55.406 96.565 54.998C96.4517 54.59 96.259 54.2273 95.987 53.91C95.7377 53.5927 95.409 53.332 95.001 53.128C94.6157 52.924 94.1284 52.822 93.539 52.822C92.9724 52.822 92.485 52.924 92.077 53.128C91.669 53.3093 91.329 53.5587 91.057 53.876C90.785 54.1933 90.5697 54.5673 90.411 54.998C90.275 55.406 90.173 55.8253 90.105 56.256H96.803ZM104.759 58.058C104.759 56.766 104.963 55.5533 105.371 54.42C105.801 53.264 106.413 52.2667 107.207 51.428C108 50.5667 108.963 49.8867 110.097 49.388C111.23 48.8893 112.522 48.64 113.973 48.64C114.925 48.64 115.797 48.7307 116.591 48.912C117.384 49.0707 118.155 49.3087 118.903 49.626L117.849 53.672C117.373 53.4907 116.851 53.332 116.285 53.196C115.718 53.06 115.083 52.992 114.381 52.992C112.885 52.992 111.763 53.4567 111.015 54.386C110.289 55.3153 109.927 56.5393 109.927 58.058C109.927 59.6673 110.267 60.914 110.947 61.798C111.649 62.682 112.862 63.124 114.585 63.124C115.197 63.124 115.854 63.0673 116.557 62.954C117.259 62.8407 117.905 62.6593 118.495 62.41L119.209 66.558C118.619 66.8073 117.883 67.0227 116.999 67.204C116.115 67.3853 115.14 67.476 114.075 67.476C112.443 67.476 111.037 67.238 109.859 66.762C108.68 66.2633 107.705 65.5947 106.935 64.756C106.187 63.9173 105.631 62.9313 105.269 61.798C104.929 60.642 104.759 59.3953 104.759 58.058ZM122.439 44.662L127.505 43.846V49.116H133.591V53.332H127.505V59.622C127.505 60.6873 127.686 61.5373 128.049 62.172C128.434 62.8067 129.193 63.124 130.327 63.124C130.871 63.124 131.426 63.0787 131.993 62.988C132.582 62.8747 133.115 62.7273 133.591 62.546L134.305 66.49C133.693 66.7393 133.013 66.9547 132.265 67.136C131.517 67.3173 130.599 67.408 129.511 67.408C128.128 67.408 126.983 67.2267 126.077 66.864C125.17 66.4787 124.445 65.9573 123.901 65.3C123.357 64.62 122.971 63.804 122.745 62.852C122.541 61.9 122.439 60.846 122.439 59.69V44.662ZM153.024 67.34C151.551 67.3173 150.349 67.1587 149.42 66.864C148.513 66.5693 147.788 66.1613 147.244 65.64C146.723 65.096 146.36 64.45 146.156 63.702C145.975 62.9313 145.884 62.07 145.884 61.118V41.432L150.95 40.616V60.098C150.95 60.5513 150.984 60.9593 151.052 61.322C151.12 61.6847 151.245 61.9907 151.426 62.24C151.63 62.4893 151.913 62.6933 152.276 62.852C152.639 63.0107 153.126 63.1127 153.738 63.158L153.024 67.34ZM173.37 58.024C173.37 59.4293 173.166 60.7213 172.758 61.9C172.35 63.056 171.76 64.0533 170.99 64.892C170.219 65.708 169.29 66.3427 168.202 66.796C167.136 67.2493 165.935 67.476 164.598 67.476C163.283 67.476 162.082 67.2493 160.994 66.796C159.928 66.3427 159.01 65.708 158.24 64.892C157.469 64.0533 156.868 63.056 156.438 61.9C156.007 60.7213 155.792 59.4293 155.792 58.024C155.792 56.6187 156.007 55.338 156.438 54.182C156.891 53.026 157.503 52.04 158.274 51.224C159.067 50.408 159.996 49.7733 161.062 49.32C162.15 48.8667 163.328 48.64 164.598 48.64C165.89 48.64 167.068 48.8667 168.134 49.32C169.222 49.7733 170.151 50.408 170.922 51.224C171.692 52.04 172.293 53.026 172.724 54.182C173.154 55.338 173.37 56.6187 173.37 58.024ZM168.202 58.024C168.202 56.46 167.884 55.236 167.25 54.352C166.638 53.4453 165.754 52.992 164.598 52.992C163.442 52.992 162.546 53.4453 161.912 54.352C161.277 55.236 160.96 56.46 160.96 58.024C160.96 59.588 161.277 60.8347 161.912 61.764C162.546 62.6707 163.442 63.124 164.598 63.124C165.754 63.124 166.638 62.6707 167.25 61.764C167.884 60.8347 168.202 59.588 168.202 58.024ZM181.612 57.48C181.612 60.3133 182.757 61.73 185.046 61.73C185.567 61.73 186.055 61.662 186.508 61.526C186.961 61.39 187.347 61.2313 187.664 61.05V52.958C187.415 52.9127 187.12 52.8787 186.78 52.856C186.44 52.8107 186.043 52.788 185.59 52.788C184.253 52.788 183.255 53.23 182.598 54.114C181.941 54.998 181.612 56.12 181.612 57.48ZM192.73 64.756C192.73 67.68 191.982 69.8447 190.486 71.25C189.013 72.678 186.723 73.392 183.618 73.392C182.53 73.392 181.442 73.29 180.354 73.086C179.266 72.9047 178.257 72.6553 177.328 72.338L178.212 68.088C179.005 68.4053 179.833 68.6547 180.694 68.836C181.578 69.0173 182.575 69.108 183.686 69.108C185.137 69.108 186.157 68.7907 186.746 68.156C187.358 67.5213 187.664 66.7053 187.664 65.708V65.062C187.12 65.3113 186.553 65.504 185.964 65.64C185.397 65.7533 184.774 65.81 184.094 65.81C181.623 65.81 179.731 65.0847 178.416 63.634C177.101 62.1607 176.444 60.1093 176.444 57.48C176.444 56.1653 176.648 54.9753 177.056 53.91C177.464 52.822 178.053 51.8927 178.824 51.122C179.617 50.3513 180.581 49.762 181.714 49.354C182.847 48.9233 184.128 48.708 185.556 48.708C186.168 48.708 186.791 48.742 187.426 48.81C188.083 48.8553 188.729 48.9233 189.364 49.014C189.999 49.1047 190.599 49.218 191.166 49.354C191.755 49.4673 192.277 49.592 192.73 49.728V64.756ZM214.21 58.024C214.21 59.4293 214.006 60.7213 213.598 61.9C213.19 63.056 212.6 64.0533 211.83 64.892C211.059 65.708 210.13 66.3427 209.042 66.796C207.976 67.2493 206.775 67.476 205.438 67.476C204.123 67.476 202.922 67.2493 201.834 66.796C200.768 66.3427 199.85 65.708 199.08 64.892C198.309 64.0533 197.708 63.056 197.278 61.9C196.847 60.7213 196.632 59.4293 196.632 58.024C196.632 56.6187 196.847 55.338 197.278 54.182C197.731 53.026 198.343 52.04 199.114 51.224C199.907 50.408 200.836 49.7733 201.902 49.32C202.99 48.8667 204.168 48.64 205.438 48.64C206.73 48.64 207.908 48.8667 208.974 49.32C210.062 49.7733 210.991 50.408 211.762 51.224C212.532 52.04 213.133 53.026 213.564 54.182C213.994 55.338 214.21 56.6187 214.21 58.024ZM209.042 58.024C209.042 56.46 208.724 55.236 208.09 54.352C207.478 53.4453 206.594 52.992 205.438 52.992C204.282 52.992 203.386 53.4453 202.752 54.352C202.117 55.236 201.8 56.46 201.8 58.024C201.8 59.588 202.117 60.8347 202.752 61.764C203.386 62.6707 204.282 63.124 205.438 63.124C206.594 63.124 207.478 62.6707 208.09 61.764C208.724 60.8347 209.042 59.588 209.042 58.024Z" fill="#338EF8" fill-opacity="0.6"/>
</svg>
