<svg width="255" height="255" viewBox="0 0 255 255" fill="none" xmlns="http://www.w3.org/2000/svg">
<path d="M127.625 119C134.045 119 139.25 113.795 139.25 107.375C139.25 100.955 134.045 95.75 127.625 95.75C121.205 95.75 116 100.955 116 107.375C116 113.795 121.205 119 127.625 119Z" fill="#61DAFB"/>
<path d="M127.625 150.125C136.75 159 145.75 164.25 153 164.25C155.375 164.25 157.625 163.75 159.5 162.625C166 158.875 168.375 149.5 166.125 136.125C165.75 133.75 165.25 131.375 164.625 128.875C167.125 128.125 169.375 127.375 171.625 126.625C184.25 121.75 191.25 115 191.25 107.625C191.25 100.125 184.25 93.375 171.625 88.625C169.375 87.75 167.125 87 164.625 86.375C165.25 83.875 165.75 81.5 166.125 79.125C168.25 65.5 165.875 56 159.375 52.25C157.5 51.125 155.25 50.625 152.875 50.625C145.75 50.625 136.625 55.875 127.5 64.75C118.5 55.875 109.5 50.625 102.25 50.625C99.875 50.625 97.625 51.125 95.75 52.25C89.25 56 86.875 65.375 89.125 78.75C89.5 81.125 90 83.5 90.625 86C88.125 86.75 85.875 87.5 83.625 88.25C71 93.125 64 99.875 64 107.25C64 114.75 71 121.5 83.625 126.25C85.875 127.125 88.125 127.875 90.625 128.5C90 131 89.5 133.375 89.125 135.75C87 149.125 89.375 158.625 95.75 162.25C97.625 163.375 99.875 163.875 102.25 163.875C109.5 164.125 118.5 158.875 127.625 150.125ZM120.625 133.25C122.875 133.375 125.25 133.375 127.625 133.375C130 133.375 132.375 133.375 134.625 133.25C132.375 136.25 130 139 127.625 141.625C125.25 139 122.875 136.25 120.625 133.25ZM105.125 120.375C106.375 122.5 107.5 124.5 108.875 126.5C105 126 101.375 125.375 97.875 124.625C99 121.25 100.25 117.75 101.75 114.25C102.75 116.25 103.875 118.375 105.125 120.375ZM97.875 90.25C101.375 89.5 105 88.875 108.875 88.375C107.625 90.375 106.375 92.375 105.125 94.5C103.875 96.625 102.75 98.625 101.75 100.75C100.125 97.125 98.875 93.625 97.875 90.25ZM104.75 107.375C106.375 104 108.125 100.625 110.125 97.25C112 94 114.125 90.75 116.25 87.5C120 87.25 123.75 87.125 127.625 87.125C131.625 87.125 135.375 87.25 139 87.5C141.25 90.75 143.25 94 145.125 97.25C147.125 100.625 148.875 104 150.5 107.375C148.875 110.75 147.125 114.125 145.125 117.5C143.25 120.75 141.125 124 139 127.25C135.25 127.5 131.5 127.625 127.625 127.625C123.625 127.625 119.875 127.5 116.25 127.25C114 124 112 120.75 110.125 117.5C108.125 114.125 106.375 110.75 104.75 107.375ZM153.625 100.625L150.25 94.375C149 92.25 147.875 90.25 146.5 88.25C150.375 88.75 154 89.375 157.5 90.125C156.375 93.625 155.125 97.125 153.625 100.625ZM153.625 114.125C155.125 117.625 156.375 121.125 157.5 124.5C154 125.25 150.375 125.875 146.5 126.375C147.75 124.375 149 122.375 150.25 120.25C151.375 118.375 152.5 116.25 153.625 114.125ZM156.5 157.5C155.5 158.125 154.25 158.375 152.875 158.375C146.75 158.375 139.125 153.375 131.625 145.875C135.25 142 138.75 137.625 142.25 132.75C148.125 132.25 153.75 131.375 159 130.125C159.625 132.375 160 134.625 160.375 136.875C162.125 147.5 160.75 155.125 156.5 157.5ZM163 91.625C177 95.625 185.375 101.75 185.375 107.375C185.375 112.25 179.625 117.125 169.5 121C167.5 121.75 165.25 122.5 163 123.125C161.375 118 159.375 112.75 156.875 107.375C159.375 102 161.5 96.75 163 91.625ZM153 56.375C154.375 56.375 155.5 56.625 156.625 57.25C160.75 59.625 162.25 67.125 160.5 77.875C160.125 80 159.625 82.25 159.125 84.625C153.875 83.5 148.25 82.625 142.375 82C139 77.125 135.375 72.75 131.75 68.875C139.25 61.5 146.875 56.375 153 56.375ZM134.625 81.5C132.375 81.375 130 81.375 127.625 81.375C125.25 81.375 122.875 81.375 120.625 81.5C122.875 78.5 125.25 75.75 127.625 73.125C130 75.75 132.375 78.625 134.625 81.5ZM98.75 57.25C99.75 56.625 101 56.375 102.375 56.375C108.5 56.375 116.125 61.375 123.625 68.875C120 72.75 116.5 77.125 113 82C107.125 82.5 101.5 83.375 96.25 84.625C95.625 82.375 95.25 80.125 94.875 77.875C93.125 67.25 94.5 59.75 98.75 57.25ZM92.25 123.125C78.25 119.125 69.875 113 69.875 107.375C69.875 102.5 75.625 97.625 85.75 93.75C87.75 93 90 92.25 92.25 91.625C93.875 96.75 95.875 102 98.375 107.375C95.875 112.75 93.75 118.125 92.25 123.125ZM94.875 136.875C95.25 134.75 95.75 132.5 96.25 130.125C101.5 131.25 107.125 132.125 113 132.75C116.375 137.625 120 142 123.625 145.875C116.125 153.25 108.5 158.375 102.375 158.375C101 158.375 99.875 158.125 98.75 157.5C94.5 155.125 93.125 147.5 94.875 136.875ZM89.625 188.375C92.375 185 92.5 181.25 91 177.5C89.5 173.75 86.375 172 82.5 171.875C77.875 171.75 73.125 171.875 68.5 171.875H67.625V204.25H71.375V192H77.25C78 192 78.625 192.25 79 192.875L86.5 204.5C86.625 204.75 87 205.125 87.25 205.125H92.125C89.125 200.5 86.25 196.125 83.25 191.625C85.875 191.25 88.125 190.375 89.625 188.375ZM71.375 188.125V175.75H72.75C75.625 175.75 78.625 175.625 81.5 175.875C84.875 176 87.25 178.625 87.25 182C87.25 185.375 84.5 188 81.125 188.125C78.125 188.25 75.125 188.125 71.375 188.125ZM119.75 189.75C117.75 181 109.75 178.75 103.625 181.5C98.875 183.625 96.75 187.75 96.625 192.875C96.5 196.75 97.625 200.25 100.625 202.875C104 205.875 108.125 206.25 112.375 205.5C114.75 205 116.875 203.875 118.5 202.125C117.875 201.25 117.25 200.375 116.625 199.625C113.125 202.625 109.25 203.625 105 201.625C102.25 200.25 100.875 196.875 100.625 194.375H120V192.75C120.125 191.625 120 190.625 119.75 189.75ZM100.875 191.75C100.5 188 104.25 184 108.375 184C113.125 183.875 116.125 186.75 116.25 191.75H100.875ZM139.25 180.875C137.375 180.5 135.375 180.375 133.5 180.5C130.5 180.75 127.875 182.125 125.75 184.375C126.375 185.25 126.875 186.125 127.625 187.125C127.875 186.875 128.125 186.625 128.375 186.5C130.375 184.625 132.75 183.625 135.625 183.875C137.875 184 140 184.75 140.625 187C141.125 188.75 141 190.625 141.125 192.5C140.75 192.5 140.625 192.375 140.5 192.25C137.5 189.75 134.125 189.25 130.5 190.125C127.125 191 125 193.625 124.75 197C124.5 200.875 126.25 203.75 129.625 205.125C131.75 206 134.125 206 136.375 205.5C138.125 205.125 138.875 204.125 141.375 202.75V204.375H144.875C144.875 199.375 145 193.25 144.875 187.5C144.875 183.875 142.75 181.625 139.25 180.875ZM141 196.625C140.875 197 141 197.375 141 197.75C141 200.375 140.375 201.25 137.875 202.25C136.125 202.875 134.25 203.125 132.375 202.5C130.25 201.875 128.75 200 128.75 197.875C128.625 195.75 130 193.625 132.125 193C135 192 137.625 192.625 140 194.375C140.75 195 141.25 195.625 141 196.625ZM160.5 184.25C163.75 183.25 166.75 183.875 169 186.625L169.375 186.875C170.25 186.125 171 185.375 172 184.5C171.625 184.125 171.5 183.875 171.25 183.5C167.625 179.625 160.5 179.125 156.125 182.25C150 186.75 150.125 195.5 153.125 200.125C156 204.5 160.125 206 165 205.375C167.875 205 170.25 203.625 172.125 201.25C171.25 200.5 170.375 199.75 169.5 198.875C169.25 199.125 169.125 199.25 169 199.5C165.625 203.25 160 202.875 157 198.875C155.25 196.5 154.875 193.75 155.375 191C155.625 187.875 157.25 185.375 160.5 184.25ZM186.5 201.25C186.25 201.375 186.125 201.5 186.125 201.5C185.125 202.25 184.125 202.375 183 202C181.875 201.5 181.75 200.5 181.625 199.5V185.25C181.625 185 181.625 185.5 181.75 184.25H186.5V180.5H181.5V174.25H177.75V181H174.5C174.25 181 173.875 181.25 173.875 181.5C173.75 182.375 173.875 183 173.875 184.25H177.875V200.25C177.875 202.25 178.375 204 180.125 205C182 206.125 185.625 205.875 187.25 204.5C187.5 204.375 187.625 203.875 187.625 203.75C187.25 203 186.875 202.125 186.5 201.25Z" fill="#61DAFB"/>
</svg>
