<svg width="255" height="255" viewBox="0 0 255 255" fill="none" xmlns="http://www.w3.org/2000/svg">
<path d="M88.0773 139.424C87.3598 139.031 86.8079 138.189 86.8079 137.068C86.8079 135.556 87.9669 134.331 89.5179 134.331C90.0673 134.331 90.5666 134.495 90.9505 134.719C93.7715 136.626 96.6998 137.579 99.3478 137.579C102.22 137.579 103.877 136.345 103.877 134.381V134.27C103.877 131.973 100.785 131.189 97.3577 130.126C93.0515 128.892 88.2454 127.101 88.2454 121.44V121.327C88.2454 115.722 92.8301 112.305 98.6307 112.305C101.725 112.305 104.983 113.203 107.8 114.714C108.742 115.22 109.401 116.117 109.401 117.29C109.401 118.861 108.188 120.04 106.641 120.04C106.086 120.04 105.755 119.928 105.318 119.703C102.938 118.468 100.509 117.682 98.4656 117.682C95.8674 117.682 94.3756 118.918 94.3756 120.6V120.709C94.3756 122.895 97.5242 123.79 100.95 124.913C105.204 126.258 110.01 128.218 110.01 133.541V133.655C110.01 139.874 105.257 142.953 99.1817 142.953C95.483 142.953 91.4502 141.78 88.0773 139.424Z" fill="#5FB832"/>
<path d="M135.905 127.658V127.545C135.905 121.832 132.092 118.077 127.565 118.077C123.035 118.077 119.058 121.888 119.058 127.545V127.658C119.058 133.318 123.035 137.132 127.565 137.132C132.149 137.132 135.905 133.487 135.905 127.658ZM112.538 115.721C112.538 113.82 113.972 112.304 115.854 112.304C117.731 112.304 119.223 113.82 119.223 115.721V117.741C121.378 114.661 124.415 112.194 129.167 112.194C136.015 112.194 142.7 117.683 142.7 127.545V127.658C142.7 137.466 136.071 143.012 129.167 143.012C124.306 143.012 121.267 140.543 119.223 137.804V148.276C119.223 150.188 117.731 151.646 115.854 151.646C114.033 151.646 112.538 150.188 112.538 148.276V115.721Z" fill="#5FB832"/>
<path d="M145.232 115.725C145.232 113.823 146.665 112.308 148.543 112.308C150.426 112.308 151.916 113.823 151.916 115.725V117.355C152.249 114.816 156.333 112.308 159.262 112.308C161.36 112.308 162.577 113.708 162.577 115.668C162.577 117.46 161.416 118.639 159.924 118.918C155.173 119.759 151.916 123.976 151.916 129.809V139.585C151.916 141.436 150.426 142.948 148.543 142.948C146.722 142.948 145.232 141.491 145.232 139.585V115.725Z" fill="#5FB832"/>
<path d="M165.105 115.739C165.105 113.834 166.546 112.319 168.421 112.319C170.299 112.319 171.791 113.834 171.791 115.739V139.591C171.791 141.493 170.299 142.948 168.421 142.948C166.597 142.948 165.105 141.493 165.105 139.591V115.739Z" fill="#5FB832"/>
<path d="M175.16 115.752C175.16 113.848 176.597 112.336 178.472 112.336C180.353 112.336 181.843 113.848 181.843 115.752V117.143C183.725 114.397 186.427 112.319 190.957 112.319C197.53 112.319 201.344 116.803 201.344 123.639V139.587C201.344 141.491 199.906 142.95 198.028 142.95C196.15 142.95 194.66 141.491 194.66 139.587V125.713C194.66 121.12 192.395 118.485 188.417 118.485C184.551 118.485 181.843 121.23 181.843 125.828V139.587C181.843 141.491 180.353 142.95 178.472 142.95C176.651 142.95 175.16 141.491 175.16 139.587V115.752Z" fill="#5FB832"/>
<path d="M219.012 137.07C214.423 137.07 210.67 133.426 210.67 127.598V127.488C210.67 121.774 214.479 118.019 219.012 118.019C223.543 118.019 227.519 121.83 227.519 127.488V127.598C227.519 133.259 223.543 137.07 219.012 137.07ZM230.717 112.246C228.842 112.246 227.35 113.762 227.35 115.664V117.681C225.194 114.6 222.159 112.135 217.411 112.135C210.557 112.135 203.875 117.624 203.875 127.488V127.598C203.875 137.405 210.502 142.95 217.411 142.95C222.243 142.95 225.274 140.511 227.32 137.784C226.985 143.113 223.769 145.926 218.129 145.926C214.762 145.926 211.832 145.082 209.177 143.567C208.846 143.403 208.465 143.292 207.966 143.292C206.42 143.292 205.145 144.582 205.145 146.09C205.145 147.38 205.865 148.332 207.028 148.781C210.558 150.518 214.201 151.415 218.292 151.415C223.543 151.415 227.631 150.127 230.283 147.436C232.708 144.969 234.035 141.275 234.035 136.285V115.664C234.035 113.762 232.599 112.246 230.717 112.246Z" fill="#5FB832"/>
<path d="M171.817 104.154C171.817 106.04 170.308 107.573 168.446 107.573C166.584 107.573 165.078 106.04 165.078 104.154C165.078 102.264 166.584 100.738 168.446 100.738C170.308 100.738 171.817 102.264 171.817 104.154Z" fill="#5FB832"/>
<path d="M65.6518 140.923C58.2416 150.938 42.4124 147.558 32.2638 148.044C32.2638 148.044 30.4672 148.145 28.6577 148.448C28.6577 148.448 29.3419 148.151 30.2146 147.846C37.3424 145.346 40.7108 144.844 45.0419 142.587C53.1796 138.358 61.2784 129.148 62.9263 119.58C59.8289 128.782 50.4083 136.702 41.8305 139.919C35.9594 142.116 25.342 144.255 25.3404 144.256C25.3454 144.264 24.9173 144.03 24.9113 144.025C17.6906 140.462 17.4823 124.598 30.5964 119.485C36.3463 117.241 41.8461 118.473 48.0618 116.973C54.6912 115.374 62.3694 110.333 65.4902 103.743C68.9889 114.27 73.1918 130.738 65.6518 140.923ZM65.7806 100.481C64.8984 102.607 63.8219 104.523 62.5807 106.236C57.1178 100.549 49.4929 97.0058 41.0648 97.0058C24.4861 97.0058 11 110.687 11 127.501C11 136.316 14.7091 144.265 20.6225 149.837L21.2808 150.429C20.1814 149.519 20.0123 147.882 20.9034 146.765C21.8 145.649 23.4161 145.476 24.516 146.38C25.619 147.286 25.787 148.928 24.894 150.047C24.0043 151.165 22.3853 151.334 21.2838 150.431L21.7319 150.834C26.9626 155.301 33.7053 158 41.0648 158C56.9115 158 69.9238 145.491 71.0376 129.702C71.8625 121.971 69.6115 112.155 65.7806 100.481Z" fill="#5FB832"/>
<path d="M241.862 114.382H240.812V115.792H241.862C242.202 115.792 242.574 115.514 242.574 115.103C242.574 114.66 242.202 114.382 241.862 114.382ZM242.51 117.873L241.49 116.299H240.812V117.873H240.263V113.889H241.862C242.525 113.889 243.14 114.366 243.14 115.103C243.14 115.988 242.362 116.284 242.137 116.284L243.189 117.873H242.51ZM241.572 112.922C239.955 112.922 238.662 114.234 238.662 115.874C238.662 117.496 239.955 118.825 241.572 118.825C243.171 118.825 244.481 117.496 244.481 115.874C244.481 114.234 243.171 112.922 241.572 112.922ZM241.572 119.35C239.68 119.35 238.145 117.792 238.145 115.874C238.145 113.938 239.68 112.397 241.572 112.397C243.479 112.397 244.999 113.938 244.999 115.874C244.999 117.792 243.479 119.35 241.572 119.35Z" fill="#5FB832"/>
</svg>
